<svg width="390" height="418" viewBox="0 0 390 418" fill="none" xmlns="http://www.w3.org/2000/svg">
<path fill-rule="evenodd" clip-rule="evenodd" d="M16.258 11.7891C17.5822 12.1735 18.5966 12.8463 19.3014 13.8073C20.0276 14.7684 20.3906 15.9537 20.3906 17.3633C20.3906 19.3068 19.6965 20.8338 18.3083 21.9444C16.9415 23.0336 15.03 23.5782 12.574 23.5782H2.22647V0.768855H12.2536C14.6029 0.768855 16.4503 1.30278 17.7958 2.37063C19.1412 3.41713 19.814 4.86941 19.814 6.72747C19.814 7.92346 19.4936 8.96996 18.8529 9.86695C18.2336 10.7426 17.3686 11.3833 16.258 11.7891ZM6.26295 10.3795H11.5809C14.4427 10.3795 15.8736 9.31167 15.8736 7.17597C15.8736 6.10811 15.5212 5.30723 14.8164 4.7733C14.1117 4.23937 13.0331 3.97241 11.5809 3.97241H6.26295V10.3795ZM12.1255 20.3746C13.6205 20.3746 14.7097 20.1077 15.3931 19.5737C16.0979 19.0398 16.4503 18.1962 16.4503 17.0429C16.4503 15.8683 16.0979 15.0033 15.3931 14.448C14.7097 13.8928 13.6205 13.6151 12.1255 13.6151H6.26295V20.3746H12.1255ZM24.0565 0H28.0289V23.5782H24.0565V0ZM46.5692 15.6974H35.4208C35.5062 17.4273 35.9334 18.7088 36.7022 19.5417C37.4924 20.3533 38.6564 20.759 40.1941 20.759C41.9668 20.759 43.6112 20.1824 45.1276 19.0291L46.2809 21.7842C45.512 22.4035 44.5616 22.9054 43.4297 23.2899C42.3191 23.6529 41.1872 23.8345 40.0339 23.8345C37.3857 23.8345 35.3034 23.087 33.787 21.592C32.2707 20.097 31.5125 18.0467 31.5125 15.4411C31.5125 13.7966 31.8435 12.3337 32.5056 11.0523C33.1676 9.77085 34.0967 8.77774 35.2927 8.07296C36.4887 7.34682 37.8448 6.98375 39.3612 6.98375C41.5823 6.98375 43.3336 7.70989 44.615 9.16217C45.9178 10.5931 46.5692 12.5686 46.5692 15.0888V15.6974ZM39.4573 9.86695C38.3894 9.86695 37.5138 10.1873 36.8304 10.828C36.1683 11.4474 35.7412 12.355 35.549 13.551H43.0773C42.9492 12.3337 42.5754 11.4153 41.9561 10.796C41.3581 10.1766 40.5252 9.86695 39.4573 9.86695ZM59.2185 6.98375C63.0841 6.98375 65.0169 9.20489 65.0169 13.6472V23.5782H61.0125V13.8394C61.0125 12.5579 60.7669 11.6289 60.2757 11.0523C59.7844 10.4543 59.0263 10.1553 58.0011 10.1553C56.7838 10.1553 55.8014 10.5504 55.0539 11.3406C54.3064 12.1094 53.9326 13.1346 53.9326 14.416V23.5782H49.9602V11.9813C49.9602 10.2727 49.8748 8.74571 49.7039 7.40022H53.4521L53.7404 10.0592C54.2957 9.07674 55.0432 8.31857 55.9829 7.78464C56.944 7.25072 58.0225 6.98375 59.2185 6.98375ZM84.7361 23.5782H80.7957V20.9833C80.3045 21.8803 79.5997 22.5851 78.6813 23.0976C77.763 23.5889 76.7165 23.8345 75.5419 23.8345C74.1536 23.8345 72.9149 23.4821 71.8257 22.7773C70.7365 22.0725 69.8822 21.0794 69.2629 19.798C68.6649 18.4952 68.3659 17.0109 68.3659 15.345C68.3659 13.6792 68.6649 12.2162 69.2629 10.9562C69.8609 9.6961 70.7045 8.72435 71.7937 8.04093C72.8829 7.33614 74.1323 6.98375 75.5419 6.98375C76.6951 6.98375 77.7203 7.22936 78.6173 7.72057C79.5356 8.19043 80.2404 8.86317 80.7316 9.73881V0H84.7361V23.5782ZM76.599 20.695C77.9232 20.695 78.9483 20.2358 79.6744 19.3174C80.4219 18.3991 80.7957 17.0963 80.7957 15.4091C80.7957 13.7219 80.4326 12.4191 79.7065 11.5008C78.9803 10.5824 77.9552 10.1232 76.6311 10.1232C75.2856 10.1232 74.2391 10.5824 73.4916 11.5008C72.7654 12.3978 72.4024 13.6792 72.4024 15.345C72.4024 17.0322 72.7654 18.3457 73.4916 19.2854C74.2391 20.2251 75.2749 20.695 76.599 20.695ZM103.257 15.6974H92.1087C92.1942 17.4273 92.6213 18.7088 93.3902 19.5417C94.1804 20.3533 95.3443 20.759 96.882 20.759C98.6547 20.759 100.299 20.1824 101.816 19.0291L102.969 21.7842C102.2 22.4035 101.25 22.9054 100.118 23.2899C99.0071 23.6529 97.8751 23.8345 96.7219 23.8345C94.0736 23.8345 91.9913 23.087 90.4749 21.592C88.9586 20.097 88.2004 18.0467 88.2004 15.4411C88.2004 13.7966 88.5314 12.3337 89.1935 11.0523C89.8556 9.77085 90.7846 8.77774 91.9806 8.07296C93.1766 7.34682 94.5328 6.98375 96.0491 6.98375C98.2703 6.98375 100.022 7.70989 101.303 9.16217C102.606 10.5931 103.257 12.5686 103.257 15.0888V15.6974ZM96.1452 9.86695C95.0774 9.86695 94.2017 10.1873 93.5183 10.828C92.8562 11.4474 92.4291 12.355 92.2369 13.551H99.7652C99.6371 12.3337 99.2634 11.4153 98.644 10.796C98.046 10.1766 97.2131 9.86695 96.1452 9.86695ZM115.362 7.01579C115.981 7.01579 116.515 7.10122 116.964 7.27207L116.932 10.9241C116.248 10.6465 115.543 10.5077 114.817 10.5077C113.45 10.5077 112.404 10.9028 111.678 11.693C110.973 12.4832 110.621 13.5297 110.621 14.8325V23.5782H106.648V11.9813C106.648 10.2727 106.563 8.74571 106.392 7.40022H110.14L110.46 10.2514C110.866 9.20489 111.507 8.404 112.382 7.84871C113.258 7.29343 114.251 7.01579 115.362 7.01579ZM147.045 23.5782H142.689L139.773 15.9857C139.517 15.281 139.122 14.7898 138.588 14.5121C138.054 14.2345 137.36 14.0956 136.506 14.0956H132.373V23.5782H128.273V0.768855H138.043C140.628 0.768855 142.593 1.33482 143.938 2.46674C145.284 3.59866 145.956 5.2218 145.956 7.33614C145.956 8.85249 145.55 10.1446 144.739 11.2124C143.949 12.2589 142.817 13.0064 141.343 13.4549C142.689 13.7326 143.66 14.6723 144.258 16.2741L147.045 23.5782ZM137.467 10.8921C139.026 10.8921 140.179 10.6038 140.927 10.0271C141.674 9.45049 142.048 8.57485 142.048 7.40022C142.048 6.24694 141.674 5.39265 140.927 4.83737C140.201 4.26073 139.047 3.97241 137.467 3.97241H132.309V10.8921H137.467ZM164.638 15.6974H153.489C153.575 17.4273 154.002 18.7088 154.771 19.5417C155.561 20.3533 156.725 20.759 158.263 20.759C160.035 20.759 161.68 20.1824 163.196 19.0291L164.349 21.7842C163.581 22.4035 162.63 22.9054 161.498 23.2899C160.388 23.6529 159.256 23.8345 158.102 23.8345C155.454 23.8345 153.372 23.087 151.856 21.592C150.339 20.097 149.581 18.0467 149.581 15.4411C149.581 13.7966 149.912 12.3337 150.574 11.0523C151.236 9.77085 152.165 8.77774 153.361 8.07296C154.557 7.34682 155.913 6.98375 157.43 6.98375C159.651 6.98375 161.402 7.70989 162.684 9.16217C163.986 10.5931 164.638 12.5686 164.638 15.0888V15.6974ZM157.526 9.86695C156.458 9.86695 155.582 10.1873 154.899 10.828C154.237 11.4474 153.81 12.355 153.618 13.551H161.146C161.018 12.3337 160.644 11.4153 160.025 10.796C159.427 10.1766 158.594 9.86695 157.526 9.86695ZM177.287 6.98375C181.153 6.98375 183.085 9.20489 183.085 13.6472V23.5782H179.081V13.8394C179.081 12.5579 178.835 11.6289 178.344 11.0523C177.853 10.4543 177.095 10.1553 176.07 10.1553C174.852 10.1553 173.87 10.5504 173.122 11.3406C172.375 12.1094 172.001 13.1346 172.001 14.416V23.5782H168.029V11.9813C168.029 10.2727 167.943 8.74571 167.772 7.40022H171.521L171.809 10.0592C172.364 9.07674 173.112 8.31857 174.051 7.78464C175.013 7.25072 176.091 6.98375 177.287 6.98375ZM202.805 23.5782H198.864V20.9833C198.373 21.8803 197.668 22.5851 196.75 23.0976C195.832 23.5889 194.785 23.8345 193.61 23.8345C192.222 23.8345 190.983 23.4821 189.894 22.7773C188.805 22.0725 187.951 21.0794 187.331 19.798C186.733 18.4952 186.434 17.0109 186.434 15.345C186.434 13.6792 186.733 12.2162 187.331 10.9562C187.929 9.6961 188.773 8.72435 189.862 8.04093C190.951 7.33614 192.201 6.98375 193.61 6.98375C194.764 6.98375 195.789 7.22936 196.686 7.72057C197.604 8.19043 198.309 8.86317 198.8 9.73881V0H202.805V23.5782ZM194.668 20.695C195.992 20.695 197.017 20.2358 197.743 19.3174C198.491 18.3991 198.864 17.0963 198.864 15.4091C198.864 13.7219 198.501 12.4191 197.775 11.5008C197.049 10.5824 196.024 10.1232 194.7 10.1232C193.354 10.1232 192.308 10.5824 191.56 11.5008C190.834 12.3978 190.471 13.6792 190.471 15.345C190.471 17.0322 190.834 18.3457 191.56 19.2854C192.308 20.2251 193.343 20.695 194.668 20.695ZM221.326 15.6974H210.177C210.263 17.4273 210.69 18.7088 211.459 19.5417C212.249 20.3533 213.413 20.759 214.951 20.759C216.723 20.759 218.368 20.1824 219.884 19.0291L221.037 21.7842C220.269 22.4035 219.318 22.9054 218.186 23.2899C217.076 23.6529 215.944 23.8345 214.79 23.8345C212.142 23.8345 210.06 23.087 208.543 21.592C207.027 20.097 206.269 18.0467 206.269 15.4411C206.269 13.7966 206.6 12.3337 207.262 11.0523C207.924 9.77085 208.853 8.77774 210.049 8.07296C211.245 7.34682 212.601 6.98375 214.118 6.98375C216.339 6.98375 218.09 7.70989 219.372 9.16217C220.674 10.5931 221.326 12.5686 221.326 15.0888V15.6974ZM214.214 9.86695C213.146 9.86695 212.27 10.1873 211.587 10.828C210.925 11.4474 210.498 12.355 210.305 13.551H217.834C217.706 12.3337 217.332 11.4153 216.713 10.796C216.115 10.1766 215.282 9.86695 214.214 9.86695ZM233.43 7.01579C234.05 7.01579 234.584 7.10122 235.032 7.27207L235 10.9241C234.317 10.6465 233.612 10.5077 232.886 10.5077C231.519 10.5077 230.472 10.9028 229.746 11.693C229.041 12.4832 228.689 13.5297 228.689 14.8325V23.5782H224.717V11.9813C224.717 10.2727 224.631 8.74571 224.46 7.40022H228.209L228.529 10.2514C228.935 9.20489 229.575 8.404 230.451 7.84871C231.327 7.29343 232.32 7.01579 233.43 7.01579ZM243.032 23.8345C240.106 23.8345 237.778 23.151 236.048 21.7842L237.17 18.9651C238.899 20.2465 240.875 20.8872 243.096 20.8872C244.057 20.8872 244.794 20.727 245.307 20.4067C245.84 20.0863 246.107 19.6378 246.107 19.0612C246.107 18.5699 245.926 18.1855 245.563 17.9079C245.2 17.6089 244.58 17.3526 243.705 17.139L241.014 16.5304C238.067 15.8896 236.593 14.384 236.593 12.0133C236.593 11.0309 236.871 10.166 237.426 9.41846C237.981 8.6496 238.761 8.05161 239.764 7.62446C240.768 7.19732 241.932 6.98375 243.256 6.98375C244.41 6.98375 245.52 7.16529 246.588 7.52836C247.656 7.87007 248.596 8.37196 249.407 9.03403L248.222 11.7571C246.599 10.5611 244.933 9.96306 243.224 9.96306C242.306 9.96306 241.59 10.1339 241.078 10.4756C240.565 10.8173 240.309 11.2872 240.309 11.8852C240.309 12.355 240.459 12.7288 240.757 13.0064C241.078 13.2841 241.612 13.519 242.359 13.7112L245.114 14.3199C246.716 14.683 247.88 15.2489 248.606 16.0178C249.354 16.7653 249.727 17.7477 249.727 18.9651C249.727 20.46 249.129 21.6454 247.933 22.521C246.737 23.3966 245.104 23.8345 243.032 23.8345ZM14.8245 71.6315L12.9984 67.4028H4.34883L2.5228 71.6315H0L7.61645 54.5245H9.70678L17.3473 71.6315H14.8245ZM12.1575 65.4326L8.67363 57.2876L5.18976 65.4326H12.1575ZM32.1672 59.2338C33.2084 59.2338 34.1374 59.498 34.9543 60.0266C35.7712 60.5552 36.4039 61.3 36.8524 62.2611C37.3169 63.2222 37.5492 64.3274 37.5492 65.5768C37.5492 66.8262 37.3249 67.9234 36.8764 68.8684C36.4279 69.7975 35.7952 70.5183 34.9783 71.0308C34.1614 71.5434 33.2244 71.7997 32.1672 71.7997C31.2382 71.7997 30.4213 71.6075 29.7165 71.2231C29.0277 70.8226 28.5071 70.254 28.1548 69.5172V76.8213H25.7521V62.9339C25.7521 61.6685 25.688 60.5312 25.5599 59.5221H27.8184L28.0586 61.7566C28.379 60.9557 28.8996 60.339 29.6204 59.9065C30.3412 59.458 31.1901 59.2338 32.1672 59.2338ZM31.6146 69.8776C32.7038 69.8776 33.5527 69.5012 34.1614 68.7483C34.7701 67.9955 35.0744 66.9383 35.0744 65.5768C35.0744 64.1993 34.7701 63.1261 34.1614 62.3572C33.5527 61.5723 32.7038 61.1799 31.6146 61.1799C30.4933 61.1799 29.6364 61.5563 29.0437 62.3092C28.4511 63.062 28.1548 64.1352 28.1548 65.5287C28.1548 66.9223 28.4511 67.9955 29.0437 68.7483C29.6524 69.5012 30.5094 69.8776 31.6146 69.8776ZM40.3933 71.6315V53.9479H42.796V71.6315H40.3933ZM57.4294 59.5221V71.6315H55.0267V69.5652C54.6743 70.286 54.1457 70.8386 53.4409 71.2231C52.7522 71.6075 51.9433 71.7997 51.0142 71.7997C49.9411 71.7997 48.996 71.5434 48.1791 71.0308C47.3782 70.5183 46.7535 69.7975 46.305 68.8684C45.8565 67.9234 45.6323 66.8262 45.6323 65.5768C45.6323 64.3274 45.8565 63.2222 46.305 62.2611C46.7695 61.3 47.4103 60.5552 48.2272 60.0266C49.0441 59.498 49.9731 59.2338 51.0142 59.2338C51.9433 59.2338 52.7522 59.434 53.4409 59.8344C54.1297 60.2188 54.6583 60.7715 55.0267 61.4923V59.5221H57.4294ZM51.5909 69.8776C52.6801 69.8776 53.521 69.5012 54.1137 68.7483C54.7224 67.9795 55.0267 66.9063 55.0267 65.5287C55.0267 64.1352 54.7224 63.062 54.1137 62.3092C53.521 61.5563 52.6721 61.1799 51.5669 61.1799C50.4777 61.1799 49.6207 61.5723 48.996 62.3572C48.3873 63.1261 48.083 64.1993 48.083 65.5768C48.083 66.9383 48.3873 67.9955 48.996 68.7483C49.6207 69.5012 50.4857 69.8776 51.5909 69.8776ZM66.2562 71.7997C65.0388 71.7997 63.9736 71.5434 63.0606 71.0308C62.1636 70.5183 61.4749 69.7975 60.9943 68.8684C60.5138 67.9234 60.2735 66.8262 60.2735 65.5768C60.2735 64.3274 60.5218 63.2222 61.0184 62.2611C61.5309 61.3 62.2437 60.5552 63.1567 60.0266C64.0697 59.498 65.1349 59.2338 66.3523 59.2338C67.2012 59.2338 68.0181 59.3779 68.803 59.6662C69.5879 59.9385 70.2206 60.315 70.7011 60.7955L69.9563 62.5494C68.819 61.6524 67.6737 61.2039 66.5205 61.2039C65.3512 61.2039 64.4382 61.5884 63.7814 62.3572C63.1247 63.1101 62.7963 64.1752 62.7963 65.5528C62.7963 66.9303 63.1247 67.9955 63.7814 68.7483C64.4382 69.4851 65.3512 69.8535 66.5205 69.8535C67.7058 69.8535 68.8511 69.405 69.9563 68.508L70.7011 70.262C70.1885 70.7425 69.5318 71.1189 68.7309 71.3912C67.946 71.6635 67.1211 71.7997 66.2562 71.7997ZM83.3157 65.6248H74.6661C74.7462 68.46 76.0356 69.8776 78.5344 69.8776C79.9279 69.8776 81.2013 69.4211 82.3546 68.508L83.0994 70.238C82.5548 70.7185 81.8581 71.1029 81.0091 71.3912C80.1762 71.6635 79.3353 71.7997 78.4863 71.7997C76.5482 71.7997 75.0265 71.2471 73.9212 70.1419C72.816 69.0206 72.2634 67.4909 72.2634 65.5528C72.2634 64.3194 72.5037 63.2222 72.9842 62.2611C73.4808 61.3 74.1695 60.5552 75.0505 60.0266C75.9315 59.498 76.9326 59.2338 78.0538 59.2338C79.6876 59.2338 80.9691 59.7623 81.8981 60.8195C82.8431 61.8767 83.3157 63.3423 83.3157 65.2164V65.6248ZM78.1019 61.0358C77.1889 61.0358 76.444 61.3081 75.8674 61.8527C75.2908 62.3973 74.9224 63.1741 74.7622 64.1832H81.1773C81.0812 63.1581 80.7688 62.3812 80.2403 61.8527C79.7117 61.3081 78.9989 61.0358 78.1019 61.0358ZM108.916 59.5221H111.295L106.682 71.6315H104.471L101.228 62.8618L98.008 71.6315H95.7975L91.1844 59.5221H93.7072L96.9989 68.7723L100.339 59.5221H102.261L105.6 68.7723L108.916 59.5221ZM119.992 59.2338C122.891 59.2338 124.341 60.8515 124.341 64.0871V71.6315H121.914V64.2313C121.914 63.1741 121.706 62.4053 121.289 61.9247C120.889 61.4442 120.24 61.2039 119.343 61.2039C118.318 61.2039 117.493 61.5243 116.868 62.165C116.26 62.8057 115.955 63.6627 115.955 64.7359V71.6315H113.553V53.9479H115.955V61.3962C116.356 60.6914 116.908 60.1548 117.613 59.7864C118.318 59.418 119.111 59.2338 119.992 59.2338ZM138.127 65.6248H129.477C129.557 68.46 130.846 69.8776 133.345 69.8776C134.739 69.8776 136.012 69.4211 137.165 68.508L137.91 70.238C137.366 70.7185 136.669 71.1029 135.82 71.3912C134.987 71.6635 134.146 71.7997 133.297 71.7997C131.359 71.7997 129.837 71.2471 128.732 70.1419C127.627 69.0206 127.074 67.4909 127.074 65.5528C127.074 64.3194 127.315 63.2222 127.795 62.2611C128.292 61.3 128.98 60.5552 129.861 60.0266C130.742 59.498 131.743 59.2338 132.865 59.2338C134.498 59.2338 135.78 59.7623 136.709 60.8195C137.654 61.8767 138.127 63.3423 138.127 65.2164V65.6248ZM132.913 61.0358C132 61.0358 131.255 61.3081 130.678 61.8527C130.102 62.3973 129.733 63.1741 129.573 64.1832H135.988C135.892 63.1581 135.58 62.3812 135.051 61.8527C134.523 61.3081 133.81 61.0358 132.913 61.0358ZM146.942 59.2338C147.31 59.2338 147.695 59.2898 148.095 59.4019L148.047 61.6124C147.615 61.4522 147.142 61.3721 146.63 61.3721C145.524 61.3721 144.691 61.7085 144.131 62.3812C143.586 63.038 143.314 63.8709 143.314 64.88V71.6315H140.911V62.9339C140.911 61.6685 140.847 60.5312 140.719 59.5221H142.977L143.194 61.7085C143.514 60.9076 144.011 60.2989 144.683 59.8825C145.356 59.45 146.109 59.2338 146.942 59.2338ZM160.041 65.6248H151.392C151.472 68.46 152.761 69.8776 155.26 69.8776C156.654 69.8776 157.927 69.4211 159.08 68.508L159.825 70.238C159.281 70.7185 158.584 71.1029 157.735 71.3912C156.902 71.6635 156.061 71.7997 155.212 71.7997C153.274 71.7997 151.752 71.2471 150.647 70.1419C149.542 69.0206 148.989 67.4909 148.989 65.5528C148.989 64.3194 149.229 63.2222 149.71 62.2611C150.207 61.3 150.895 60.5552 151.776 60.0266C152.657 59.498 153.658 59.2338 154.78 59.2338C156.413 59.2338 157.695 59.7623 158.624 60.8195C159.569 61.8767 160.041 63.3423 160.041 65.2164V65.6248ZM154.828 61.0358C153.915 61.0358 153.17 61.3081 152.593 61.8527C152.017 62.3973 151.648 63.1741 151.488 64.1832H157.903C157.807 63.1581 157.495 62.3812 156.966 61.8527C156.437 61.3081 155.725 61.0358 154.828 61.0358ZM175.647 59.2338C176.704 59.2338 177.641 59.49 178.458 60.0026C179.275 60.5152 179.908 61.244 180.356 62.189C180.805 63.1341 181.029 64.2313 181.029 65.4807C181.029 66.7301 180.796 67.8353 180.332 68.7964C179.883 69.7414 179.251 70.4782 178.434 71.0068C177.617 71.5354 176.688 71.7997 175.647 71.7997C174.718 71.7997 173.901 71.6075 173.196 71.2231C172.507 70.8226 171.987 70.254 171.634 69.5172V71.6315H169.232V53.9479H171.634V61.5163C171.987 60.7955 172.507 60.2349 173.196 59.8344C173.901 59.434 174.718 59.2338 175.647 59.2338ZM175.094 69.8776C176.183 69.8776 177.032 69.4931 177.641 68.7243C178.25 67.9394 178.554 66.8582 178.554 65.4807C178.554 64.1192 178.25 63.062 177.641 62.3092C177.032 61.5563 176.183 61.1799 175.094 61.1799C173.989 61.1799 173.132 61.5563 172.523 62.3092C171.931 63.062 171.634 64.1352 171.634 65.5287C171.634 66.9223 171.931 67.9955 172.523 68.7483C173.132 69.5012 173.989 69.8776 175.094 69.8776ZM194.204 65.6248H185.555C185.635 68.46 186.924 69.8776 189.423 69.8776C190.817 69.8776 192.09 69.4211 193.243 68.508L193.988 70.238C193.444 70.7185 192.747 71.1029 191.898 71.3912C191.065 71.6635 190.224 71.7997 189.375 71.7997C187.437 71.7997 185.915 71.2471 184.81 70.1419C183.705 69.0206 183.152 67.4909 183.152 65.5528C183.152 64.3194 183.392 63.2222 183.873 62.2611C184.369 61.3 185.058 60.5552 185.939 60.0266C186.82 59.498 187.821 59.2338 188.943 59.2338C190.576 59.2338 191.858 59.7623 192.787 60.8195C193.732 61.8767 194.204 63.3423 194.204 65.2164V65.6248ZM188.991 61.0358C188.078 61.0358 187.333 61.3081 186.756 61.8527C186.179 62.3973 185.811 63.1741 185.651 64.1832H192.066C191.97 63.1581 191.658 62.3812 191.129 61.8527C190.6 61.3081 189.888 61.0358 188.991 61.0358ZM208.161 59.5221V71.4153C208.161 73.2573 207.673 74.6429 206.696 75.5719C205.735 76.5169 204.301 76.9895 202.395 76.9895C200.553 76.9895 198.943 76.589 197.566 75.7881L197.974 73.89C198.727 74.2905 199.448 74.5868 200.137 74.779C200.841 74.9712 201.586 75.0673 202.371 75.0673C204.63 75.0673 205.759 73.914 205.759 71.6075V68.9886C205.39 69.6934 204.854 70.254 204.149 70.6704C203.444 71.0709 202.627 71.2711 201.698 71.2711C200.641 71.2711 199.696 71.0228 198.863 70.5263C198.046 70.0297 197.405 69.325 196.941 68.4119C196.492 67.4989 196.268 66.4498 196.268 65.2644C196.268 64.0791 196.492 63.03 196.941 62.117C197.405 61.2039 198.046 60.4992 198.863 60.0026C199.696 59.49 200.641 59.2338 201.698 59.2338C202.627 59.2338 203.444 59.434 204.149 59.8344C204.854 60.2188 205.39 60.7715 205.759 61.4923V59.5221H208.161ZM202.251 69.325C203.34 69.325 204.197 68.9646 204.822 68.2438C205.446 67.523 205.759 66.5299 205.759 65.2644C205.759 63.999 205.446 63.0059 204.822 62.2851C204.213 61.5483 203.356 61.1799 202.251 61.1799C201.162 61.1799 200.297 61.5483 199.656 62.2851C199.031 63.0059 198.719 63.999 198.719 65.2644C198.719 66.5138 199.031 67.5069 199.656 68.2438C200.297 68.9646 201.162 69.325 202.251 69.325ZM211.724 71.6315V59.5221H214.127V71.6315H211.724ZM211.508 54.2362H214.319V56.783H211.508V54.2362ZM224.123 59.2338C227.022 59.2338 228.472 60.8515 228.472 64.0871V71.6315H226.045V64.2313C226.045 63.1741 225.837 62.4053 225.42 61.9247C225.02 61.4442 224.371 61.2039 223.474 61.2039C222.449 61.2039 221.624 61.5243 221 62.165C220.391 62.8057 220.087 63.6627 220.087 64.7359V71.6315H217.684V62.9339C217.684 61.6685 217.62 60.5312 217.492 59.5221H219.75L219.966 61.6124C220.351 60.8435 220.903 60.2589 221.624 59.8584C222.361 59.442 223.194 59.2338 224.123 59.2338ZM238.365 59.2338C241.265 59.2338 242.714 60.8515 242.714 64.0871V71.6315H240.288V64.2313C240.288 63.1741 240.079 62.4053 239.663 61.9247C239.262 61.4442 238.614 61.2039 237.717 61.2039C236.692 61.2039 235.867 61.5243 235.242 62.165C234.633 62.8057 234.329 63.6627 234.329 64.7359V71.6315H231.926V62.9339C231.926 61.6685 231.862 60.5312 231.734 59.5221H233.993L234.209 61.6124C234.593 60.8435 235.146 60.2589 235.867 59.8584C236.603 59.442 237.436 59.2338 238.365 59.2338ZM256.5 65.6248H247.85C247.931 68.46 249.22 69.8776 251.719 69.8776C253.112 69.8776 254.386 69.4211 255.539 68.508L256.284 70.238C255.739 70.7185 255.042 71.1029 254.194 71.3912C253.361 71.6635 252.52 71.7997 251.671 71.7997C249.733 71.7997 248.211 71.2471 247.106 70.1419C246 69.0206 245.448 67.4909 245.448 65.5528C245.448 64.3194 245.688 63.2222 246.169 62.2611C246.665 61.3 247.354 60.5552 248.235 60.0266C249.116 59.498 250.117 59.2338 251.238 59.2338C252.872 59.2338 254.153 59.7623 255.083 60.8195C256.028 61.8767 256.5 63.3423 256.5 65.2164V65.6248ZM251.286 61.0358C250.373 61.0358 249.628 61.3081 249.052 61.8527C248.475 62.3973 248.107 63.1741 247.947 64.1832H254.362C254.266 63.1581 253.953 62.3812 253.425 61.8527C252.896 61.3081 252.183 61.0358 251.286 61.0358ZM265.315 59.2338C265.684 59.2338 266.068 59.2898 266.469 59.4019L266.421 61.6124C265.988 61.4522 265.516 61.3721 265.003 61.3721C263.898 61.3721 263.065 61.7085 262.504 62.3812C261.96 63.038 261.687 63.8709 261.687 64.88V71.6315H259.285V62.9339C259.285 61.6685 259.221 60.5312 259.093 59.5221H261.351L261.567 61.7085C261.888 60.9076 262.384 60.2989 263.057 59.8825C263.73 59.45 264.483 59.2338 265.315 59.2338ZM285.007 62.8137C286 63.086 286.769 63.5826 287.314 64.3034C287.858 65.0242 288.131 65.9132 288.131 66.9703C288.131 68.444 287.618 69.5892 286.593 70.4062C285.584 71.2231 284.166 71.6315 282.34 71.6315H274.94V54.5245H282.1C283.862 54.5245 285.231 54.917 286.209 55.7018C287.202 56.4867 287.698 57.5839 287.698 58.9935C287.698 59.9065 287.458 60.6994 286.977 61.3721C286.513 62.0289 285.856 62.5094 285.007 62.8137ZM277.391 61.9488H281.716C284.102 61.9488 285.296 61.0277 285.296 59.1857C285.296 57.4077 284.102 56.5187 281.716 56.5187H277.391V61.9488ZM282.1 69.6373C283.349 69.6373 284.262 69.413 284.839 68.9646C285.416 68.5 285.704 67.7873 285.704 66.8262C285.704 65.8491 285.408 65.1283 284.815 64.6638C284.238 64.1832 283.333 63.943 282.1 63.943H277.391V69.6373H282.1ZM291.172 71.6315V53.9479H293.574V71.6315H291.172ZM307.463 65.6248H298.813C298.893 68.46 300.183 69.8776 302.682 69.8776C304.075 69.8776 305.349 69.4211 306.502 68.508L307.247 70.238C306.702 70.7185 306.005 71.1029 305.156 71.3912C304.323 71.6635 303.483 71.7997 302.634 71.7997C300.695 71.7997 299.174 71.2471 298.069 70.1419C296.963 69.0206 296.411 67.4909 296.411 65.5528C296.411 64.3194 296.651 63.2222 297.131 62.2611C297.628 61.3 298.317 60.5552 299.198 60.0266C300.079 59.498 301.08 59.2338 302.201 59.2338C303.835 59.2338 305.116 59.7623 306.045 60.8195C306.99 61.8767 307.463 63.3423 307.463 65.2164V65.6248ZM302.249 61.0358C301.336 61.0358 300.591 61.3081 300.015 61.8527C299.438 62.3973 299.07 63.1741 298.909 64.1832H305.325C305.228 63.1581 304.916 62.3812 304.387 61.8527C303.859 61.3081 303.146 61.0358 302.249 61.0358ZM316.687 59.2338C319.586 59.2338 321.036 60.8515 321.036 64.0871V71.6315H318.609V64.2313C318.609 63.1741 318.401 62.4053 317.984 61.9247C317.584 61.4442 316.935 61.2039 316.038 61.2039C315.013 61.2039 314.188 61.5243 313.563 62.165C312.955 62.8057 312.65 63.6627 312.65 64.7359V71.6315H310.248V62.9339C310.248 61.6685 310.184 60.5312 310.055 59.5221H312.314L312.53 61.6124C312.915 60.8435 313.467 60.2589 314.188 59.8584C314.925 59.442 315.758 59.2338 316.687 59.2338ZM335.566 53.9479V71.6315H333.164V69.5652C332.811 70.286 332.283 70.8386 331.578 71.2231C330.889 71.6075 330.08 71.7997 329.151 71.7997C328.11 71.7997 327.181 71.5354 326.364 71.0068C325.547 70.4782 324.906 69.7414 324.442 68.7964C323.993 67.8353 323.769 66.7301 323.769 65.4807C323.769 64.2313 323.993 63.1341 324.442 62.189C324.89 61.244 325.515 60.5152 326.316 60.0026C327.133 59.49 328.078 59.2338 329.151 59.2338C330.064 59.2338 330.865 59.426 331.554 59.8104C332.259 60.1948 332.787 60.7394 333.14 61.4442V53.9479H335.566ZM329.704 69.8776C330.809 69.8776 331.658 69.5012 332.251 68.7483C332.859 67.9795 333.164 66.9063 333.164 65.5287C333.164 64.1512 332.859 63.086 332.251 62.3332C331.658 61.5643 330.817 61.1799 329.728 61.1799C328.623 61.1799 327.758 61.5563 327.133 62.3092C326.524 63.062 326.22 64.1192 326.22 65.4807C326.22 66.8582 326.524 67.9394 327.133 68.7243C327.758 69.4931 328.615 69.8776 329.704 69.8776ZM349.463 65.6248H340.813C340.893 68.46 342.183 69.8776 344.681 69.8776C346.075 69.8776 347.348 69.4211 348.502 68.508L349.246 70.238C348.702 70.7185 348.005 71.1029 347.156 71.3912C346.323 71.6635 345.482 71.7997 344.633 71.7997C342.695 71.7997 341.173 71.2471 340.068 70.1419C338.963 69.0206 338.41 67.4909 338.41 65.5528C338.41 64.3194 338.651 63.2222 339.131 62.2611C339.628 61.3 340.317 60.5552 341.197 60.0266C342.078 59.498 343.08 59.2338 344.201 59.2338C345.835 59.2338 347.116 59.7623 348.045 60.8195C348.99 61.8767 349.463 63.3423 349.463 65.2164V65.6248ZM344.249 61.0358C343.336 61.0358 342.591 61.3081 342.014 61.8527C341.438 62.3973 341.069 63.1741 340.909 64.1832H347.324C347.228 63.1581 346.916 62.3812 346.387 61.8527C345.859 61.3081 345.146 61.0358 344.249 61.0358ZM358.278 59.2338C358.646 59.2338 359.031 59.2898 359.431 59.4019L359.383 61.6124C358.951 61.4522 358.478 61.3721 357.966 61.3721C356.86 61.3721 356.028 61.7085 355.467 62.3812C354.922 63.038 354.65 63.8709 354.65 64.88V71.6315H352.247V62.9339C352.247 61.6685 352.183 60.5312 352.055 59.5221H354.314L354.53 61.7085C354.85 60.9076 355.347 60.2989 356.02 59.8825C356.692 59.45 357.445 59.2338 358.278 59.2338ZM12.614 89.5554V101.665H10.2113V99.5986C9.85894 100.319 9.33036 100.872 8.62558 101.256C7.93681 101.641 7.12791 101.833 6.19888 101.833C5.12569 101.833 4.18064 101.577 3.36373 101.064C2.56284 100.552 1.93815 99.8308 1.48965 98.9018C1.04116 97.9567 0.816907 96.8595 0.816907 95.6101C0.816907 94.3607 1.04116 93.2555 1.48965 92.2945C1.95417 91.3334 2.59488 90.5886 3.41179 90.06C4.22869 89.5314 5.15773 89.2671 6.19888 89.2671C7.12791 89.2671 7.93681 89.4673 8.62558 89.8678C9.31434 90.2522 9.84293 90.8048 10.2113 91.5256V89.5554H12.614ZM6.77552 99.9109C7.86473 99.9109 8.70566 99.5345 9.29832 98.7817C9.907 98.0128 10.2113 96.9396 10.2113 95.5621C10.2113 94.1685 9.907 93.0953 9.29832 92.3425C8.70566 91.5897 7.85672 91.2132 6.75149 91.2132C5.66228 91.2132 4.80533 91.6057 4.18064 92.3906C3.57197 93.1594 3.26763 94.2326 3.26763 95.6101C3.26763 96.9716 3.57197 98.0288 4.18064 98.7817C4.80533 99.5345 5.67029 99.9109 6.77552 99.9109ZM22.2097 89.2671C22.5781 89.2671 22.9625 89.3231 23.3629 89.4353L23.3149 91.6457C22.8824 91.4856 22.4099 91.4055 21.8973 91.4055C20.7921 91.4055 19.9592 91.7418 19.3985 92.4146C18.8539 93.0713 18.5816 93.9042 18.5816 94.9134V101.665H16.179V92.9672C16.179 91.7018 16.1149 90.5645 15.9867 89.5554H18.2453L18.4615 91.7418C18.7818 90.941 19.2784 90.3323 19.9511 89.9158C20.6239 89.4833 21.3767 89.2671 22.2097 89.2671ZM29.3689 91.4295V97.5082C29.3689 98.3412 29.545 98.9338 29.8974 99.2862C30.2658 99.6226 30.7704 99.7908 31.4111 99.7908C31.8276 99.7908 32.252 99.7267 32.6845 99.5986V101.569C32.1559 101.745 31.5553 101.833 30.8825 101.833C29.6331 101.833 28.6641 101.481 27.9753 100.776C27.2865 100.071 26.9422 99.0459 26.9422 97.7005V91.4295H24.5875V89.5554H26.9422V86.528L29.3689 85.6871V89.5554H32.7086V91.4295H29.3689ZM34.9498 101.665V89.5554H37.3525V101.665H34.9498ZM34.7336 84.2695H37.5447V86.8164H34.7336V84.2695ZM45.1382 101.833C43.0239 101.833 41.358 101.32 40.1407 100.295L40.8615 98.5414C42.1269 99.5024 43.5765 99.983 45.2103 99.983C46.0432 99.983 46.6759 99.8468 47.1084 99.5745C47.5409 99.2862 47.7571 98.8858 47.7571 98.3732C47.7571 97.9407 47.605 97.6043 47.3006 97.3641C47.0123 97.1078 46.5158 96.8916 45.811 96.7154L43.7927 96.2348C42.7356 96.0106 41.9267 95.6181 41.366 95.0575C40.8214 94.4809 40.5491 93.7681 40.5491 92.9191C40.5491 91.8299 40.9816 90.949 41.8466 90.2762C42.7276 89.6035 43.8888 89.2671 45.3304 89.2671C46.1954 89.2671 47.0123 89.4032 47.7812 89.6755C48.566 89.9478 49.2308 90.3323 49.7754 90.8288L49.0305 92.5347C47.8613 91.6057 46.6279 91.1412 45.3304 91.1412C44.5456 91.1412 43.9369 91.2933 43.5044 91.5977C43.0719 91.886 42.8557 92.2945 42.8557 92.823C42.8557 93.2395 42.9918 93.5759 43.2641 93.8322C43.5365 94.0884 43.9689 94.2887 44.5616 94.4328L46.6279 94.9374C47.7812 95.1937 48.6301 95.6021 49.1747 96.1627C49.7353 96.7073 50.0156 97.4201 50.0156 98.3011C50.0156 99.3903 49.5752 100.255 48.6942 100.896C47.8292 101.521 46.6439 101.833 45.1382 101.833ZM55.9061 91.4295V97.5082C55.9061 98.3412 56.0823 98.9338 56.4347 99.2862C56.8031 99.6226 57.3077 99.7908 57.9484 99.7908C58.3648 99.7908 58.7893 99.7267 59.2218 99.5986V101.569C58.6932 101.745 58.0925 101.833 57.4198 101.833C56.1704 101.833 55.2013 101.481 54.5126 100.776C53.8238 100.071 53.4794 99.0459 53.4794 97.7005V91.4295H51.1248V89.5554H53.4794V86.528L55.9061 85.6871V89.5554H59.2458V91.4295H55.9061ZM65.7158 101.833C63.6014 101.833 61.9356 101.32 60.7182 100.295L61.439 98.5414C62.7044 99.5024 64.154 99.983 65.7878 99.983C66.6208 99.983 67.2535 99.8468 67.6859 99.5745C68.1184 99.2862 68.3347 98.8858 68.3347 98.3732C68.3347 97.9407 68.1825 97.6043 67.8782 97.3641C67.5898 97.1078 67.0933 96.8916 66.3885 96.7154L64.3703 96.2348C63.3131 96.0106 62.5042 95.6181 61.9436 95.0575C61.399 94.4809 61.1267 93.7681 61.1267 92.9191C61.1267 91.8299 61.5591 90.949 62.4241 90.2762C63.3051 89.6035 64.4664 89.2671 65.908 89.2671C66.7729 89.2671 67.5898 89.4032 68.3587 89.6755C69.1436 89.9478 69.8083 90.3323 70.3529 90.8288L69.6081 92.5347C68.4388 91.6057 67.2054 91.1412 65.908 91.1412C65.1231 91.1412 64.5144 91.2933 64.082 91.5977C63.6495 91.886 63.4332 92.2945 63.4332 92.823C63.4332 93.2395 63.5694 93.5759 63.8417 93.8322C64.114 94.0884 64.5465 94.2887 65.1391 94.4328L67.2054 94.9374C68.3587 95.1937 69.2076 95.6021 69.7522 96.1627C70.3129 96.7073 70.5932 97.4201 70.5932 98.3011C70.5932 99.3903 70.1527 100.255 69.2717 100.896C68.4068 101.521 67.2214 101.833 65.7158 101.833ZM85.1209 101.833C83.9035 101.833 82.8383 101.577 81.9253 101.064C81.0283 100.552 80.3396 99.8308 79.859 98.9018C79.3785 97.9567 79.1382 96.8595 79.1382 95.6101C79.1382 94.3607 79.3865 93.2555 79.8831 92.2945C80.3956 91.3334 81.1084 90.5886 82.0214 90.06C82.9344 89.5314 83.9996 89.2671 85.217 89.2671C86.0659 89.2671 86.8828 89.4113 87.6677 89.6996C88.4526 89.9719 89.0853 90.3483 89.5658 90.8288L88.821 92.5828C87.6837 91.6858 86.5384 91.2373 85.3852 91.2373C84.2159 91.2373 83.3028 91.6217 82.6461 92.3906C81.9894 93.1434 81.661 94.2086 81.661 95.5861C81.661 96.9636 81.9894 98.0288 82.6461 98.7817C83.3028 99.5185 84.2159 99.8869 85.3852 99.8869C86.5705 99.8869 87.7157 99.4384 88.821 98.5414L89.5658 100.295C89.0532 100.776 88.3965 101.152 87.5956 101.425C86.8107 101.697 85.9858 101.833 85.1209 101.833ZM102.925 89.5554V101.665H100.523V99.5986C100.17 100.319 99.6415 100.872 98.9368 101.256C98.248 101.641 97.4391 101.833 96.5101 101.833C95.4369 101.833 94.4918 101.577 93.6749 101.064C92.874 100.552 92.2493 99.8308 91.8008 98.9018C91.3523 97.9567 91.1281 96.8595 91.1281 95.6101C91.1281 94.3607 91.3523 93.2555 91.8008 92.2945C92.2654 91.3334 92.9061 90.5886 93.723 90.06C94.5399 89.5314 95.4689 89.2671 96.5101 89.2671C97.4391 89.2671 98.248 89.4673 98.9368 89.8678C99.6255 90.2522 100.154 90.8048 100.523 91.5256V89.5554H102.925ZM97.0867 99.9109C98.1759 99.9109 99.0168 99.5345 99.6095 98.7817C100.218 98.0128 100.523 96.9396 100.523 95.5621C100.523 94.1685 100.218 93.0953 99.6095 92.3425C99.0168 91.5897 98.1679 91.2132 97.0627 91.2132C95.9735 91.2132 95.1165 91.6057 94.4918 92.3906C93.8832 93.1594 93.5788 94.2326 93.5788 95.6101C93.5788 96.9716 93.8832 98.0288 94.4918 98.7817C95.1165 99.5345 95.9815 99.9109 97.0867 99.9109ZM112.929 89.2671C115.829 89.2671 117.278 90.8849 117.278 94.1205V101.665H114.851V94.2646C114.851 93.2075 114.643 92.4386 114.227 91.9581C113.826 91.4775 113.178 91.2373 112.281 91.2373C111.255 91.2373 110.431 91.5576 109.806 92.1983C109.197 92.8391 108.893 93.696 108.893 94.7692V101.665H106.49V92.9672C106.49 91.7018 106.426 90.5645 106.298 89.5554H108.556L108.773 91.6457C109.157 90.8769 109.71 90.2922 110.431 89.8918C111.167 89.4753 112 89.2671 112.929 89.2671ZM133.553 89.2671C134.594 89.2671 135.523 89.5314 136.34 90.06C137.157 90.5886 137.79 91.3334 138.238 92.2945C138.703 93.2555 138.935 94.3607 138.935 95.6101C138.935 96.8595 138.711 97.9567 138.262 98.9018C137.814 99.8308 137.181 100.552 136.364 101.064C135.547 101.577 134.61 101.833 133.553 101.833C132.624 101.833 131.807 101.641 131.102 101.256C130.414 100.856 129.893 100.287 129.541 99.5505V106.855H127.138V92.9672C127.138 91.7018 127.074 90.5645 126.946 89.5554H129.204L129.445 91.7899C129.765 90.989 130.286 90.3723 131.006 89.9398C131.727 89.4913 132.576 89.2671 133.553 89.2671ZM133.001 99.9109C134.09 99.9109 134.939 99.5345 135.547 98.7817C136.156 98.0288 136.46 96.9716 136.46 95.6101C136.46 94.2326 136.156 93.1594 135.547 92.3906C134.939 91.6057 134.09 91.2132 133.001 91.2132C131.879 91.2132 131.022 91.5897 130.43 92.3425C129.837 93.0953 129.541 94.1685 129.541 95.5621C129.541 96.9556 129.837 98.0288 130.43 98.7817C131.038 99.5345 131.895 99.9109 133.001 99.9109ZM146.993 101.833C145.808 101.833 144.767 101.577 143.87 101.064C142.973 100.552 142.276 99.8228 141.779 98.8778C141.299 97.9327 141.059 96.8275 141.059 95.5621C141.059 94.2967 141.299 93.1914 141.779 92.2464C142.276 91.2853 142.973 90.5485 143.87 90.0359C144.767 89.5234 145.808 89.2671 146.993 89.2671C148.162 89.2671 149.196 89.5234 150.093 90.0359C150.99 90.5485 151.678 91.2853 152.159 92.2464C152.655 93.1914 152.904 94.2967 152.904 95.5621C152.904 96.8275 152.655 97.9327 152.159 98.8778C151.678 99.8228 150.99 100.552 150.093 101.064C149.196 101.577 148.162 101.833 146.993 101.833ZM146.969 99.9109C148.09 99.9109 148.947 99.5425 149.54 98.8057C150.133 98.0689 150.429 96.9877 150.429 95.5621C150.429 94.1685 150.125 93.0953 149.516 92.3425C148.923 91.5897 148.082 91.2132 146.993 91.2132C145.888 91.2132 145.031 91.5897 144.422 92.3425C143.814 93.0953 143.509 94.1685 143.509 95.5621C143.509 96.9877 143.806 98.0689 144.398 98.8057C145.007 99.5425 145.864 99.9109 146.969 99.9109ZM159.969 101.833C157.854 101.833 156.189 101.32 154.971 100.295L155.692 98.5414C156.957 99.5024 158.407 99.983 160.041 99.983C160.874 99.983 161.507 99.8468 161.939 99.5745C162.371 99.2862 162.588 98.8858 162.588 98.3732C162.588 97.9407 162.436 97.6043 162.131 97.3641C161.843 97.1078 161.346 96.8916 160.642 96.7154L158.623 96.2348C157.566 96.0106 156.757 95.6181 156.197 95.0575C155.652 94.4809 155.38 93.7681 155.38 92.9191C155.38 91.8299 155.812 90.949 156.677 90.2762C157.558 89.6035 158.719 89.2671 160.161 89.2671C161.026 89.2671 161.843 89.4032 162.612 89.6755C163.397 89.9478 164.061 90.3323 164.606 90.8288L163.861 92.5347C162.692 91.6057 161.458 91.1412 160.161 91.1412C159.376 91.1412 158.767 91.2933 158.335 91.5977C157.903 91.886 157.686 92.2945 157.686 92.823C157.686 93.2395 157.822 93.5759 158.095 93.8322C158.367 94.0884 158.8 94.2887 159.392 94.4328L161.458 94.9374C162.612 95.1937 163.461 95.6021 164.005 96.1627C164.566 96.7073 164.846 97.4201 164.846 98.3011C164.846 99.3903 164.406 100.255 163.525 100.896C162.66 101.521 161.474 101.833 159.969 101.833ZM170.737 91.4295V97.5082C170.737 98.3412 170.913 98.9338 171.265 99.2862C171.634 99.6226 172.138 99.7908 172.779 99.7908C173.195 99.7908 173.62 99.7267 174.052 99.5986V101.569C173.524 101.745 172.923 101.833 172.25 101.833C171.001 101.833 170.032 101.481 169.343 100.776C168.654 100.071 168.31 99.0459 168.31 97.7005V91.4295H165.955V89.5554H168.31V86.528L170.737 85.6871V89.5554H174.076V91.4295H170.737ZM185.871 91.4295V97.5082C185.871 98.3412 186.047 98.9338 186.399 99.2862C186.768 99.6226 187.272 99.7908 187.913 99.7908C188.329 99.7908 188.754 99.7267 189.186 99.5986V101.569C188.658 101.745 188.057 101.833 187.384 101.833C186.135 101.833 185.166 101.481 184.477 100.776C183.788 100.071 183.444 99.0459 183.444 97.7005V91.4295H181.089V89.5554H183.444V86.528L185.871 85.6871V89.5554H189.21V91.4295H185.871ZM197.891 89.2671C200.79 89.2671 202.24 90.8849 202.24 94.1205V101.665H199.813V94.2646C199.813 93.2075 199.605 92.4386 199.188 91.9581C198.788 91.4775 198.139 91.2373 197.242 91.2373C196.217 91.2373 195.392 91.5576 194.767 92.1983C194.159 92.8391 193.854 93.696 193.854 94.7692V101.665H191.452V83.9812H193.854V91.4295C194.255 90.7247 194.807 90.1881 195.512 89.8197C196.217 89.4513 197.01 89.2671 197.891 89.2671ZM216.025 95.6582H207.376C207.456 98.4933 208.745 99.9109 211.244 99.9109C212.638 99.9109 213.911 99.4544 215.064 98.5414L215.809 100.271C215.265 100.752 214.568 101.136 213.719 101.425C212.886 101.697 212.045 101.833 211.196 101.833C209.258 101.833 207.736 101.28 206.631 100.175C205.526 99.054 204.973 97.5243 204.973 95.5861C204.973 94.3527 205.213 93.2555 205.694 92.2945C206.191 91.3334 206.879 90.5886 207.76 90.06C208.641 89.5314 209.642 89.2671 210.764 89.2671C212.397 89.2671 213.679 89.7957 214.608 90.8528C215.553 91.91 216.025 93.3757 216.025 95.2497V95.6582ZM210.812 91.0691C209.899 91.0691 209.154 91.3414 208.577 91.886C208.001 92.4306 207.632 93.2075 207.472 94.2166H213.887C213.791 93.1914 213.479 92.4146 212.95 91.886C212.421 91.3414 211.709 91.0691 210.812 91.0691ZM218.81 101.665V89.5554H221.213V101.665H218.81ZM218.594 84.2695H221.405V86.8164H218.594V84.2695ZM230.801 89.2671C231.169 89.2671 231.553 89.3231 231.954 89.4353L231.906 91.6457C231.473 91.4856 231.001 91.4055 230.488 91.4055C229.383 91.4055 228.55 91.7418 227.989 92.4146C227.445 93.0713 227.173 93.9042 227.173 94.9134V101.665H224.77V92.9672C224.77 91.7018 224.706 90.5645 224.578 89.5554H226.836L227.052 91.7418C227.373 90.941 227.869 90.3323 228.542 89.9158C229.215 89.4833 229.968 89.2671 230.801 89.2671ZM245.471 101.833C244.253 101.833 243.188 101.577 242.275 101.064C241.378 100.552 240.689 99.8308 240.209 98.9018C239.728 97.9567 239.488 96.8595 239.488 95.6101C239.488 94.3607 239.736 93.2555 240.233 92.2945C240.745 91.3334 241.458 90.5886 242.371 90.06C243.284 89.5314 244.349 89.2671 245.567 89.2671C246.416 89.2671 247.233 89.4113 248.018 89.6996C248.802 89.9719 249.435 90.3483 249.916 90.8288L249.171 92.5828C248.034 91.6858 246.888 91.2373 245.735 91.2373C244.566 91.2373 243.653 91.6217 242.996 92.3906C242.339 93.1434 242.011 94.2086 242.011 95.5861C242.011 96.9636 242.339 98.0288 242.996 98.7817C243.653 99.5185 244.566 99.8869 245.735 99.8869C246.92 99.8869 248.066 99.4384 249.171 98.5414L249.916 100.295C249.403 100.776 248.746 101.152 247.945 101.425C247.161 101.697 246.336 101.833 245.471 101.833ZM258.229 89.2671C258.598 89.2671 258.982 89.3231 259.383 89.4353L259.335 91.6457C258.902 91.4856 258.43 91.4055 257.917 91.4055C256.812 91.4055 255.979 91.7418 255.418 92.4146C254.874 93.0713 254.601 93.9042 254.601 94.9134V101.665H252.199V92.9672C252.199 91.7018 252.135 90.5645 252.007 89.5554H254.265L254.481 91.7418C254.802 90.941 255.298 90.3323 255.971 89.9158C256.644 89.4833 257.397 89.2671 258.229 89.2671ZM271.329 95.6582H262.679C262.76 98.4933 264.049 99.9109 266.548 99.9109C267.941 99.9109 269.215 99.4544 270.368 98.5414L271.113 100.271C270.568 100.752 269.871 101.136 269.022 101.425C268.19 101.697 267.349 101.833 266.5 101.833C264.562 101.833 263.04 101.28 261.935 100.175C260.829 99.054 260.277 97.5243 260.277 95.5861C260.277 94.3527 260.517 93.2555 260.998 92.2945C261.494 91.3334 262.183 90.5886 263.064 90.06C263.945 89.5314 264.946 89.2671 266.067 89.2671C267.701 89.2671 268.982 89.7957 269.911 90.8528C270.857 91.91 271.329 93.3757 271.329 95.2497V95.6582ZM266.115 91.0691C265.202 91.0691 264.457 91.3414 263.881 91.886C263.304 92.4306 262.936 93.2075 262.776 94.2166H269.191C269.095 93.1914 268.782 92.4146 268.254 91.886C267.725 91.3414 267.012 91.0691 266.115 91.0691ZM285.19 89.5554V101.665H282.787V99.5986C282.435 100.319 281.906 100.872 281.202 101.256C280.513 101.641 279.704 101.833 278.775 101.833C277.702 101.833 276.757 101.577 275.94 101.064C275.139 100.552 274.514 99.8308 274.066 98.9018C273.617 97.9567 273.393 96.8595 273.393 95.6101C273.393 94.3607 273.617 93.2555 274.066 92.2945C274.53 91.3334 275.171 90.5886 275.988 90.06C276.805 89.5314 277.734 89.2671 278.775 89.2671C279.704 89.2671 280.513 89.4673 281.202 89.8678C281.89 90.2522 282.419 90.8048 282.787 91.5256V89.5554H285.19ZM279.352 99.9109C280.441 99.9109 281.282 99.5345 281.874 98.7817C282.483 98.0128 282.787 96.9396 282.787 95.5621C282.787 94.1685 282.483 93.0953 281.874 92.3425C281.282 91.5897 280.433 91.2132 279.327 91.2132C278.238 91.2132 277.381 91.6057 276.757 92.3906C276.148 93.1594 275.844 94.2326 275.844 95.6101C275.844 96.9716 276.148 98.0288 276.757 98.7817C277.381 99.5345 278.246 99.9109 279.352 99.9109ZM291.902 91.4295V97.5082C291.902 98.3412 292.079 98.9338 292.431 99.2862C292.799 99.6226 293.304 99.7908 293.945 99.7908C294.361 99.7908 294.786 99.7267 295.218 99.5986V101.569C294.69 101.745 294.089 101.833 293.416 101.833C292.167 101.833 291.198 101.481 290.509 100.776C289.82 100.071 289.476 99.0459 289.476 97.7005V91.4295H287.121V89.5554H289.476V86.528L291.902 85.6871V89.5554H295.242V91.4295H291.902ZM297.483 101.665V89.5554H299.886V101.665H297.483ZM297.267 84.2695H300.078V86.8164H297.267V84.2695ZM308.657 101.833C307.472 101.833 306.43 101.577 305.533 101.064C304.636 100.552 303.94 99.8228 303.443 98.8778C302.963 97.9327 302.722 96.8275 302.722 95.5621C302.722 94.2967 302.963 93.1914 303.443 92.2464C303.94 91.2853 304.636 90.5485 305.533 90.0359C306.43 89.5234 307.472 89.2671 308.657 89.2671C309.826 89.2671 310.859 89.5234 311.756 90.0359C312.653 90.5485 313.342 91.2853 313.823 92.2464C314.319 93.1914 314.567 94.2967 314.567 95.5621C314.567 96.8275 314.319 97.9327 313.823 98.8778C313.342 99.8228 312.653 100.552 311.756 101.064C310.859 101.577 309.826 101.833 308.657 101.833ZM308.633 99.9109C309.754 99.9109 310.611 99.5425 311.204 98.8057C311.796 98.0689 312.093 96.9877 312.093 95.5621C312.093 94.1685 311.788 93.0953 311.18 92.3425C310.587 91.5897 309.746 91.2132 308.657 91.2132C307.552 91.2132 306.695 91.5897 306.086 92.3425C305.477 93.0953 305.173 94.1685 305.173 95.5621C305.173 96.9877 305.469 98.0689 306.062 98.8057C306.671 99.5425 307.528 99.9109 308.633 99.9109ZM323.843 89.2671C326.742 89.2671 328.192 90.8849 328.192 94.1205V101.665H325.765V94.2646C325.765 93.2075 325.557 92.4386 325.141 91.9581C324.74 91.4775 324.091 91.2373 323.194 91.2373C322.169 91.2373 321.344 91.5576 320.72 92.1983C320.111 92.8391 319.807 93.696 319.807 94.7692V101.665H317.404V92.9672C317.404 91.7018 317.34 90.5645 317.212 89.5554H319.47L319.686 91.6457C320.071 90.8769 320.624 90.2922 321.344 89.8918C322.081 89.4753 322.914 89.2671 323.843 89.2671ZM335.875 101.833C333.761 101.833 332.095 101.32 330.877 100.295L331.598 98.5414C332.864 99.5024 334.313 99.983 335.947 99.983C336.78 99.983 337.413 99.8468 337.845 99.5745C338.278 99.2862 338.494 98.8858 338.494 98.3732C338.494 97.9407 338.342 97.6043 338.037 97.3641C337.749 97.1078 337.253 96.8916 336.548 96.7154L334.53 96.2348C333.472 96.0106 332.663 95.6181 332.103 95.0575C331.558 94.4809 331.286 93.7681 331.286 92.9191C331.286 91.8299 331.718 90.949 332.583 90.2762C333.464 89.6035 334.626 89.2671 336.067 89.2671C336.932 89.2671 337.749 89.4032 338.518 89.6755C339.303 89.9478 339.968 90.3323 340.512 90.8288L339.767 92.5347C338.598 91.6057 337.365 91.1412 336.067 91.1412C335.282 91.1412 334.674 91.2933 334.241 91.5977C333.809 91.886 333.592 92.2945 333.592 92.823C333.592 93.2395 333.729 93.5759 334.001 93.8322C334.273 94.0884 334.706 94.2887 335.298 94.4328L337.365 94.9374C338.518 95.1937 339.367 95.6021 339.911 96.1627C340.472 96.7073 340.752 97.4201 340.752 98.3011C340.752 99.3903 340.312 100.255 339.431 100.896C338.566 101.521 337.381 101.833 335.875 101.833ZM361.095 89.5554V101.665H358.692V99.5986C358.34 100.319 357.811 100.872 357.106 101.256C356.417 101.641 355.608 101.833 354.679 101.833C353.606 101.833 352.661 101.577 351.844 101.064C351.043 100.552 350.419 99.8308 349.97 98.9018C349.522 97.9567 349.297 96.8595 349.297 95.6101C349.297 94.3607 349.522 93.2555 349.97 92.2945C350.435 91.3334 351.075 90.5886 351.892 90.06C352.709 89.5314 353.638 89.2671 354.679 89.2671C355.608 89.2671 356.417 89.4673 357.106 89.8678C357.795 90.2522 358.323 90.8048 358.692 91.5256V89.5554H361.095ZM355.256 99.9109C356.345 99.9109 357.186 99.5345 357.779 98.7817C358.388 98.0128 358.692 96.9396 358.692 95.5621C358.692 94.1685 358.388 93.0953 357.779 92.3425C357.186 91.5897 356.337 91.2132 355.232 91.2132C354.143 91.2132 353.286 91.6057 352.661 92.3906C352.053 93.1594 351.748 94.2326 351.748 95.6101C351.748 96.9716 352.053 98.0288 352.661 98.7817C353.286 99.5345 354.151 99.9109 355.256 99.9109ZM371.099 89.2671C373.998 89.2671 375.448 90.8849 375.448 94.1205V101.665H373.021V94.2646C373.021 93.2075 372.813 92.4386 372.396 91.9581C371.996 91.4775 371.347 91.2373 370.45 91.2373C369.425 91.2373 368.6 91.5576 367.975 92.1983C367.367 92.8391 367.062 93.696 367.062 94.7692V101.665H364.66V92.9672C364.66 91.7018 364.595 90.5645 364.467 89.5554H366.726L366.942 91.6457C367.327 90.8769 367.879 90.2922 368.6 89.8918C369.337 89.4753 370.17 89.2671 371.099 89.2671ZM389.978 101.665H387.576V99.5986C387.223 100.319 386.695 100.872 385.99 101.256C385.301 101.641 384.492 101.833 383.563 101.833C382.522 101.833 381.593 101.569 380.776 101.04C379.959 100.512 379.318 99.7748 378.854 98.8297C378.405 97.8686 378.181 96.7634 378.181 95.514C378.181 94.2646 378.405 93.1674 378.854 92.2224C379.302 91.2773 379.927 90.5485 380.728 90.0359C381.545 89.5234 382.49 89.2671 383.563 89.2671C384.476 89.2671 385.277 89.4593 385.966 89.8437C386.671 90.2282 387.199 90.7728 387.551 91.4775V83.9812H389.978V101.665ZM384.116 99.9109C385.221 99.9109 386.07 99.5345 386.663 98.7817C387.271 98.0128 387.576 96.9396 387.576 95.5621C387.576 94.1845 387.271 93.1194 386.663 92.3665C386.07 91.5977 385.229 91.2132 384.14 91.2132C383.034 91.2132 382.17 91.5897 381.545 92.3425C380.936 93.0953 380.632 94.1525 380.632 95.514C380.632 96.8916 380.936 97.9728 381.545 98.7576C382.17 99.5265 383.026 99.9109 384.116 99.9109ZM12.7101 119.589V131.482C12.7101 133.324 12.2216 134.71 11.2445 135.639C10.2834 136.584 8.84982 137.056 6.94371 137.056C5.10166 137.056 3.49188 136.656 2.11435 135.855L2.5228 133.957C3.27564 134.357 3.99644 134.653 4.6852 134.846C5.38998 135.038 6.13481 135.134 6.91968 135.134C9.17819 135.134 10.3074 133.981 10.3074 131.674V129.055C9.93903 129.76 9.40244 130.321 8.69766 130.737C7.99287 131.138 7.17597 131.338 6.24693 131.338C5.18976 131.338 4.24471 131.09 3.41179 130.593C2.59488 130.096 1.95417 129.392 1.48965 128.479C1.04116 127.566 0.816907 126.516 0.816907 125.331C0.816907 124.146 1.04116 123.097 1.48965 122.184C1.95417 121.271 2.59488 120.566 3.41179 120.069C4.24471 119.557 5.18976 119.3 6.24693 119.3C7.17597 119.3 7.99287 119.501 8.69766 119.901C9.40244 120.286 9.93903 120.838 10.3074 121.559V119.589H12.7101ZM6.79955 129.392C7.88876 129.392 8.74571 129.031 9.3704 128.31C9.99509 127.59 10.3074 126.597 10.3074 125.331C10.3074 124.066 9.99509 123.073 9.3704 122.352C8.76173 121.615 7.90477 121.247 6.79955 121.247C5.71034 121.247 4.84538 121.615 4.20467 122.352C3.57997 123.073 3.26763 124.066 3.26763 125.331C3.26763 126.581 3.57997 127.574 4.20467 128.31C4.84538 129.031 5.71034 129.392 6.79955 129.392ZM26.6043 125.692H17.9547C18.0348 128.527 19.3242 129.944 21.823 129.944C23.2165 129.944 24.4899 129.488 25.6432 128.575L26.388 130.305C25.8434 130.785 25.1467 131.17 24.2977 131.458C23.4648 131.73 22.6239 131.866 21.7749 131.866C19.8368 131.866 18.3151 131.314 17.2099 130.209C16.1046 129.087 15.552 127.558 15.552 125.619C15.552 124.386 15.7923 123.289 16.2728 122.328C16.7694 121.367 17.4581 120.622 18.3391 120.093C19.2201 119.565 20.2212 119.3 21.3424 119.3C22.9763 119.3 24.2577 119.829 25.1867 120.886C26.1318 121.943 26.6043 123.409 26.6043 125.283V125.692ZM21.3905 121.102C20.4775 121.102 19.7327 121.375 19.156 121.919C18.5794 122.464 18.211 123.241 18.0508 124.25H24.4659C24.3698 123.225 24.0575 122.448 23.5289 121.919C23.0003 121.375 22.2875 121.102 21.3905 121.102ZM32.4191 121.463V127.542C32.4191 128.374 32.5953 128.967 32.9477 129.32C33.3161 129.656 33.8207 129.824 34.4614 129.824C34.8778 129.824 35.3023 129.76 35.7348 129.632V131.602C35.2062 131.778 34.6055 131.866 33.9328 131.866C32.6834 131.866 31.7143 131.514 31.0256 130.809C30.3368 130.104 29.9924 129.079 29.9924 127.734V121.463H27.6378V119.589H29.9924V116.561L32.4191 115.72V119.589H35.7588V121.463H32.4191ZM49.5233 115.961C48.1938 115.961 47.5291 116.722 47.5291 118.243V119.589H50.3642V121.463H47.5291V131.698H45.1024V121.463H42.7718V119.589H45.1024V118.051C45.1024 116.706 45.4387 115.68 46.1115 114.976C46.8003 114.271 47.7613 113.918 48.9947 113.918C49.6354 113.918 50.2201 113.999 50.7486 114.159V116.153C50.3162 116.025 49.9077 115.961 49.5233 115.961ZM63.0432 125.692H54.3936C54.4737 128.527 55.7631 129.944 58.2619 129.944C59.6554 129.944 60.9288 129.488 62.0821 128.575L62.8269 130.305C62.2823 130.785 61.5855 131.17 60.7366 131.458C59.9037 131.73 59.0627 131.866 58.2138 131.866C56.2757 131.866 54.754 131.314 53.6487 130.209C52.5435 129.087 51.9909 127.558 51.9909 125.619C51.9909 124.386 52.2312 123.289 52.7117 122.328C53.2082 121.367 53.897 120.622 54.778 120.093C55.659 119.565 56.6601 119.3 57.7813 119.3C59.4151 119.3 60.6966 119.829 61.6256 120.886C62.5706 121.943 63.0432 123.409 63.0432 125.283V125.692ZM57.8294 121.102C56.9164 121.102 56.1715 121.375 55.5949 121.919C55.0183 122.464 54.6499 123.241 54.4897 124.25H60.9048C60.8087 123.225 60.4963 122.448 59.9678 121.919C59.4392 121.375 58.7264 121.102 57.8294 121.102ZM76.1593 125.692H67.5097C67.5898 128.527 68.8792 129.944 71.378 129.944C72.7715 129.944 74.0449 129.488 75.1982 128.575L75.943 130.305C75.3984 130.785 74.7017 131.17 73.8527 131.458C73.0198 131.73 72.1789 131.866 71.3299 131.866C69.3918 131.866 67.8701 131.314 66.7649 130.209C65.6596 129.087 65.107 127.558 65.107 125.619C65.107 124.386 65.3473 123.289 65.8278 122.328C66.3244 121.367 67.0131 120.622 67.8941 120.093C68.7751 119.565 69.7762 119.3 70.8975 119.3C72.5313 119.3 73.8127 119.829 74.7417 120.886C75.6868 121.943 76.1593 123.409 76.1593 125.283V125.692ZM70.9455 121.102C70.0325 121.102 69.2877 121.375 68.711 121.919C68.1344 122.464 67.766 123.241 67.6058 124.25H74.0209C73.9248 123.225 73.6125 122.448 73.0839 121.919C72.5553 121.375 71.8425 121.102 70.9455 121.102ZM90.0202 114.015V131.698H87.6176V129.632C87.2652 130.353 86.7366 130.905 86.0318 131.29C85.343 131.674 84.5342 131.866 83.6051 131.866C82.564 131.866 81.6349 131.602 80.818 131.074C80.0011 130.545 79.3604 129.808 78.8959 128.863C78.4474 127.902 78.2231 126.797 78.2231 125.547C78.2231 124.298 78.4474 123.201 78.8959 122.256C79.3444 121.311 79.9691 120.582 80.77 120.069C81.5869 119.557 82.5319 119.3 83.6051 119.3C84.5181 119.3 85.319 119.493 86.0078 119.877C86.7126 120.261 87.2412 120.806 87.5935 121.511V114.015H90.0202ZM84.1577 129.944C85.263 129.944 86.1119 129.568 86.7046 128.815C87.3132 128.046 87.6176 126.973 87.6176 125.595C87.6176 124.218 87.3132 123.153 86.7046 122.4C86.1119 121.631 85.271 121.247 84.1818 121.247C83.0765 121.247 82.2116 121.623 81.5869 122.376C80.9782 123.129 80.6739 124.186 80.6739 125.547C80.6739 126.925 80.9782 128.006 81.5869 128.791C82.2116 129.56 83.0685 129.944 84.1577 129.944ZM100 119.3C101.057 119.3 101.995 119.557 102.811 120.069C103.628 120.582 104.261 121.311 104.71 122.256C105.158 123.201 105.382 124.298 105.382 125.547C105.382 126.797 105.15 127.902 104.686 128.863C104.237 129.808 103.604 130.545 102.787 131.074C101.971 131.602 101.041 131.866 100 131.866C99.0713 131.866 98.2544 131.674 97.5496 131.29C96.8608 130.889 96.3403 130.321 95.9879 129.584V131.698H93.5852V114.015H95.9879V121.583C96.3403 120.862 96.8608 120.302 97.5496 119.901C98.2544 119.501 99.0713 119.3 100 119.3ZM99.4477 129.944C100.537 129.944 101.386 129.56 101.995 128.791C102.603 128.006 102.908 126.925 102.908 125.547C102.908 124.186 102.603 123.129 101.995 122.376C101.386 121.623 100.537 121.247 99.4477 121.247C98.3425 121.247 97.4855 121.623 96.8769 122.376C96.2842 123.129 95.9879 124.202 95.9879 125.595C95.9879 126.989 96.2842 128.062 96.8769 128.815C97.4855 129.568 98.3425 129.944 99.4477 129.944ZM119.303 119.589V131.698H116.9V129.632C116.548 130.353 116.019 130.905 115.314 131.29C114.626 131.674 113.817 131.866 112.888 131.866C111.814 131.866 110.869 131.61 110.052 131.098C109.252 130.585 108.627 129.864 108.178 128.935C107.73 127.99 107.506 126.893 107.506 125.643C107.506 124.394 107.73 123.289 108.178 122.328C108.643 121.367 109.284 120.622 110.101 120.093C110.917 119.565 111.846 119.3 112.888 119.3C113.817 119.3 114.626 119.501 115.314 119.901C116.003 120.286 116.532 120.838 116.9 121.559V119.589H119.303ZM113.464 129.944C114.553 129.944 115.394 129.568 115.987 128.815C116.596 128.046 116.9 126.973 116.9 125.595C116.9 124.202 116.596 123.129 115.987 122.376C115.394 121.623 114.545 121.247 113.44 121.247C112.351 121.247 111.494 121.639 110.869 122.424C110.261 123.193 109.956 124.266 109.956 125.643C109.956 127.005 110.261 128.062 110.869 128.815C111.494 129.568 112.359 129.944 113.464 129.944ZM128.13 131.866C126.912 131.866 125.847 131.61 124.934 131.098C124.037 130.585 123.348 129.864 122.868 128.935C122.387 127.99 122.147 126.893 122.147 125.643C122.147 124.394 122.395 123.289 122.892 122.328C123.404 121.367 124.117 120.622 125.03 120.093C125.943 119.565 127.008 119.3 128.226 119.3C129.075 119.3 129.891 119.445 130.676 119.733C131.461 120.005 132.094 120.382 132.574 120.862L131.83 122.616C130.692 121.719 129.547 121.271 128.394 121.271C127.225 121.271 126.312 121.655 125.655 122.424C124.998 123.177 124.67 124.242 124.67 125.619C124.67 126.997 124.998 128.062 125.655 128.815C126.312 129.552 127.225 129.92 128.394 129.92C129.579 129.92 130.724 129.472 131.83 128.575L132.574 130.329C132.062 130.809 131.405 131.186 130.604 131.458C129.819 131.73 128.995 131.866 128.13 131.866ZM146.15 131.698H143.051L137.26 125.98V131.698H134.858V114.015H137.26V125.067L142.642 119.613H145.646L139.855 125.427L146.15 131.698ZM159.241 131.866C158.056 131.866 157.015 131.61 156.118 131.098C155.221 130.585 154.524 129.856 154.027 128.911C153.547 127.966 153.306 126.861 153.306 125.595C153.306 124.33 153.547 123.225 154.027 122.28C154.524 121.319 155.221 120.582 156.118 120.069C157.015 119.557 158.056 119.3 159.241 119.3C160.41 119.3 161.444 119.557 162.341 120.069C163.238 120.582 163.926 121.319 164.407 122.28C164.903 123.225 165.152 124.33 165.152 125.595C165.152 126.861 164.903 127.966 164.407 128.911C163.926 129.856 163.238 130.585 162.341 131.098C161.444 131.61 160.41 131.866 159.241 131.866ZM159.217 129.944C160.338 129.944 161.195 129.576 161.788 128.839C162.381 128.102 162.677 127.021 162.677 125.595C162.677 124.202 162.373 123.129 161.764 122.376C161.171 121.623 160.33 121.247 159.241 121.247C158.136 121.247 157.279 121.623 156.67 122.376C156.062 123.129 155.757 124.202 155.757 125.595C155.757 127.021 156.054 128.102 156.646 128.839C157.255 129.576 158.112 129.944 159.217 129.944ZM174.427 119.3C177.326 119.3 178.776 120.918 178.776 124.154V131.698H176.349V124.298C176.349 123.241 176.141 122.472 175.725 121.991C175.324 121.511 174.676 121.271 173.779 121.271C172.753 121.271 171.928 121.591 171.304 122.232C170.695 122.872 170.391 123.729 170.391 124.803V131.698H167.988V123.001C167.988 121.735 167.924 120.598 167.796 119.589H170.054L170.271 121.679C170.655 120.91 171.208 120.326 171.928 119.925C172.665 119.509 173.498 119.3 174.427 119.3ZM181.894 128.815H184.777V131.698H181.894V128.815ZM17.4113 206.421H12.4458V186.976H10.0431L3.70011 190.82V194.504L8.34526 191.717V206.421H3.34772V209.785H17.4113V206.421ZM35.1785 200.046C34.4738 199.085 33.4486 198.423 32.1031 198.06C33.2351 197.633 34.1107 196.96 34.73 196.042C35.3708 195.102 35.7018 194.002 35.7232 192.742C35.7232 190.905 35.0504 189.442 33.7049 188.353C32.3808 187.243 30.5975 186.687 28.355 186.687C26.8813 186.687 25.4397 186.933 24.0302 187.424C22.642 187.894 21.4887 188.535 20.5703 189.346L21.9479 192.358C23.9981 190.777 26.0484 189.987 28.0987 189.987C29.252 189.987 30.149 190.265 30.7897 190.82C31.4304 191.375 31.7507 192.176 31.7507 193.222C31.7507 195.465 30.2771 196.586 27.3298 196.586H24.8631V199.886H27.8744C29.3908 199.886 30.512 200.164 31.2382 200.719C31.9643 201.253 32.3274 202.096 32.3274 203.25C32.3274 204.424 31.9643 205.3 31.2382 205.877C30.5334 206.453 29.4549 206.741 28.0026 206.741C25.7815 206.741 23.6564 205.951 21.6275 204.371L20.2179 207.382C21.1363 208.215 22.3003 208.867 23.7098 209.336C25.1407 209.806 26.6251 210.041 28.1628 210.041C30.6402 210.041 32.605 209.465 34.0573 208.311C35.5309 207.158 36.2678 205.588 36.2678 203.602C36.2678 202.192 35.9047 201.007 35.1785 200.046ZM44.4243 205.3H39.9393V209.785H44.4243V205.3ZM60.8258 196.138C59.7366 195.518 58.4765 195.209 57.0456 195.209C55.4652 195.209 54.0983 195.604 52.945 196.394V190.179H63.1964V186.976H48.9085V200.398H51.4073C52.0053 199.758 52.6994 199.277 53.4896 198.957C54.2798 198.615 55.1234 198.444 56.0204 198.444C57.3232 198.444 58.359 198.829 59.1279 199.598C59.9181 200.345 60.3132 201.349 60.3132 202.609C60.3132 203.933 59.9288 204.958 59.1599 205.684C58.4124 206.389 57.3232 206.741 55.8923 206.741C53.7352 206.741 51.6209 205.951 49.5492 204.371L48.1717 207.382C49.0687 208.194 50.2113 208.845 51.5995 209.336C52.9877 209.806 54.3973 210.041 55.8282 210.041C57.5154 210.041 58.9997 209.731 60.2812 209.112C61.5626 208.471 62.545 207.585 63.2284 206.453C63.9119 205.3 64.2536 203.976 64.2536 202.481C64.2536 201.05 63.9546 199.79 63.3566 198.701C62.7586 197.59 61.915 196.736 60.8258 196.138ZM82.6295 209.785H87.6911L76.0942 197.932L87.1785 186.976H82.213L72.0257 197.195V186.976H67.8931V209.785H72.0257V199.117L82.6295 209.785ZM12.0494 230.992H13.545V243.823H11.8692V235.011L8.06696 243.823H6.78753L2.93125 235.065L2.94927 243.823H1.27341V230.992H2.76907L7.43625 241.588L12.0494 230.992ZM24.1342 239.318H17.647C17.707 241.444 18.6741 242.507 20.5482 242.507C21.5934 242.507 22.5484 242.165 23.4134 241.48L23.972 242.777C23.5635 243.138 23.041 243.426 22.4043 243.642C21.7796 243.847 21.1489 243.949 20.5122 243.949C19.0585 243.949 17.9173 243.534 17.0884 242.705C16.2594 241.864 15.845 240.717 15.845 239.264C15.845 238.339 16.0252 237.516 16.3856 236.795C16.758 236.074 17.2746 235.515 17.9353 235.119C18.596 234.723 19.3469 234.524 20.1878 234.524C21.4132 234.524 22.3742 234.921 23.071 235.714C23.7798 236.507 24.1342 237.606 24.1342 239.011V239.318ZM20.2238 235.876C19.5391 235.876 18.9805 236.08 18.548 236.489C18.1155 236.897 17.8392 237.48 17.7191 238.236H22.5304C22.4583 237.468 22.2241 236.885 21.8276 236.489C21.4312 236.08 20.8966 235.876 20.2238 235.876ZM36.5842 234.524C38.6024 234.524 39.6115 235.738 39.6115 238.164V243.823H37.7915V238.254C37.7915 237.474 37.6534 236.903 37.377 236.543C37.1128 236.182 36.6803 236.002 36.0796 236.002C35.3828 236.002 34.8302 236.242 34.4218 236.723C34.0253 237.203 33.8271 237.858 33.8271 238.687V243.823H32.0071V238.254C32.0071 237.474 31.8689 236.903 31.5926 236.543C31.3283 236.182 30.8959 236.002 30.2952 236.002C29.5984 236.002 29.0458 236.242 28.6374 236.723C28.2289 237.203 28.0247 237.858 28.0247 238.687V243.823H26.2227V237.299C26.2227 236.35 26.1746 235.497 26.0785 234.741H27.7724L27.9346 236.254C28.1989 235.702 28.5773 235.275 29.0698 234.975C29.5624 234.674 30.139 234.524 30.7998 234.524C32.2053 234.524 33.1243 235.107 33.5568 236.272C33.8331 235.732 34.2356 235.305 34.7642 234.993C35.3047 234.68 35.9114 234.524 36.5842 234.524ZM47.0303 234.524C47.8232 234.524 48.5259 234.717 49.1386 235.101C49.7513 235.485 50.2258 236.032 50.5622 236.741C50.8986 237.45 51.0668 238.272 51.0668 239.21C51.0668 240.147 50.8926 240.975 50.5442 241.696C50.2078 242.405 49.7333 242.958 49.1206 243.354C48.5079 243.751 47.8111 243.949 47.0303 243.949C46.3335 243.949 45.7208 243.805 45.1922 243.516C44.6757 243.216 44.2852 242.79 44.0209 242.237V243.823H42.2189V230.56H44.0209V236.236C44.2852 235.696 44.6757 235.275 45.1922 234.975C45.7208 234.674 46.3335 234.524 47.0303 234.524ZM46.6158 242.507C47.4327 242.507 48.0694 242.219 48.5259 241.642C48.9824 241.054 49.2107 240.243 49.2107 239.21C49.2107 238.188 48.9824 237.396 48.5259 236.831C48.0694 236.266 47.4327 235.984 46.6158 235.984C45.7869 235.984 45.1442 236.266 44.6877 236.831C44.2432 237.396 44.0209 238.2 44.0209 239.246C44.0209 240.291 44.2432 241.096 44.6877 241.66C45.1442 242.225 45.7869 242.507 46.6158 242.507ZM60.9485 239.318H54.4613C54.5213 241.444 55.4884 242.507 57.3625 242.507C58.4077 242.507 59.3627 242.165 60.2277 241.48L60.7863 242.777C60.3778 243.138 59.8553 243.426 59.2186 243.642C58.5939 243.847 57.9632 243.949 57.3265 243.949C55.8728 243.949 54.7316 243.534 53.9027 242.705C53.0737 241.864 52.6593 240.717 52.6593 239.264C52.6593 238.339 52.8395 237.516 53.1999 236.795C53.5723 236.074 54.0889 235.515 54.7496 235.119C55.4103 234.723 56.1612 234.524 57.0021 234.524C58.2275 234.524 59.1885 234.921 59.8853 235.714C60.5941 236.507 60.9485 237.606 60.9485 239.011V239.318ZM57.0381 235.876C56.3534 235.876 55.7948 236.08 55.3623 236.489C54.9298 236.897 54.6535 237.48 54.5334 238.236H59.3447C59.2726 237.468 59.0384 236.885 58.6419 236.489C58.2455 236.08 57.7109 235.876 57.0381 235.876ZM67.56 234.524C67.8363 234.524 68.1246 234.566 68.425 234.65L68.3889 236.308C68.0646 236.188 67.7102 236.128 67.3257 236.128C66.4968 236.128 65.8721 236.38 65.4517 236.885C65.0432 237.377 64.839 238.002 64.839 238.759V243.823H63.037V237.299C63.037 236.35 62.9889 235.497 62.8928 234.741H64.5867L64.7489 236.38C64.9891 235.78 65.3616 235.323 65.8661 235.011C66.3707 234.687 66.9353 234.524 67.56 234.524ZM72.8956 243.949C71.3098 243.949 70.0605 243.564 69.1474 242.796L69.688 241.48C70.6371 242.201 71.7243 242.561 72.9497 242.561C73.5744 242.561 74.0489 242.459 74.3732 242.255C74.6976 242.039 74.8598 241.738 74.8598 241.354C74.8598 241.03 74.7457 240.777 74.5174 240.597C74.3012 240.405 73.9287 240.243 73.4002 240.111L71.8865 239.75C71.0936 239.582 70.4869 239.288 70.0665 238.867C69.658 238.435 69.4538 237.9 69.4538 237.263C69.4538 236.446 69.7781 235.786 70.4269 235.281C71.0876 234.777 71.9586 234.524 73.0398 234.524C73.6885 234.524 74.3012 234.626 74.8778 234.831C75.4665 235.035 75.965 235.323 76.3735 235.696L75.8148 236.975C74.9379 236.278 74.0128 235.93 73.0398 235.93C72.4511 235.93 71.9946 236.044 71.6702 236.272C71.3459 236.489 71.1837 236.795 71.1837 237.191C71.1837 237.504 71.2858 237.756 71.49 237.948C71.6943 238.14 72.0186 238.291 72.4631 238.399L74.0128 238.777C74.8778 238.969 75.5145 239.276 75.923 239.696C76.3434 240.105 76.5537 240.639 76.5537 241.3C76.5537 242.117 76.2233 242.765 75.5626 243.246C74.9138 243.715 74.0249 243.949 72.8956 243.949ZM193.407 205.332V202.096H190.171V186.976H186.871L176.204 202.257V205.332H186.135V209.785H190.171V205.332H193.407ZM186.135 202.096H180.112L186.135 193.415V202.096ZM211.719 186.976H195.829V190.339H207.266L196.95 209.785H201.371L211.719 190.051V186.976ZM181.964 243.967C180.751 243.967 179.693 243.703 178.792 243.174C177.903 242.633 177.213 241.87 176.72 240.885C176.24 239.9 175.999 238.741 175.999 237.408C175.999 236.062 176.24 234.897 176.72 233.912C177.201 232.927 177.891 232.17 178.792 231.641C179.693 231.113 180.751 230.848 181.964 230.848C183.189 230.848 184.247 231.113 185.136 231.641C186.037 232.17 186.727 232.927 187.208 233.912C187.688 234.897 187.929 236.056 187.929 237.39C187.929 238.735 187.688 239.9 187.208 240.885C186.727 241.87 186.037 242.633 185.136 243.174C184.235 243.703 183.177 243.967 181.964 243.967ZM181.964 242.453C183.249 242.453 184.247 242.015 184.955 241.138C185.676 240.261 186.037 239.011 186.037 237.39C186.037 235.78 185.676 234.542 184.955 233.677C184.247 232.8 183.249 232.362 181.964 232.362C180.679 232.362 179.681 232.8 178.973 233.677C178.264 234.542 177.909 235.78 177.909 237.39C177.909 239.011 178.264 240.261 178.973 241.138C179.693 242.015 180.691 242.453 181.964 242.453ZM195.16 234.524C197.334 234.524 198.422 235.738 198.422 238.164V243.823H196.602V238.272C196.602 237.48 196.445 236.903 196.133 236.543C195.833 236.182 195.346 236.002 194.673 236.002C193.905 236.002 193.286 236.242 192.817 236.723C192.361 237.203 192.133 237.846 192.133 238.651V243.823H190.331V237.299C190.331 236.35 190.283 235.497 190.186 234.741H191.88L192.043 236.308C192.331 235.732 192.745 235.293 193.286 234.993C193.839 234.68 194.463 234.524 195.16 234.524ZM201.012 230.56H202.814V243.823H201.012V230.56ZM205.482 243.823V234.741H207.284V243.823H205.482ZM205.32 230.776H207.428V232.686H205.32V230.776ZM214.781 234.524C216.956 234.524 218.043 235.738 218.043 238.164V243.823H216.223V238.272C216.223 237.48 216.067 236.903 215.754 236.543C215.454 236.182 214.968 236.002 214.295 236.002C213.526 236.002 212.907 236.242 212.439 236.723C211.982 237.203 211.754 237.846 211.754 238.651V243.823H209.952V237.299C209.952 236.35 209.904 235.497 209.808 234.741H211.502L211.664 236.308C211.952 235.732 212.367 235.293 212.907 234.993C213.46 234.68 214.085 234.524 214.781 234.524ZM228.382 239.318H221.895C221.955 241.444 222.922 242.507 224.796 242.507C225.842 242.507 226.797 242.165 227.662 241.48L228.22 242.777C227.812 243.138 227.289 243.426 226.652 243.642C226.028 243.847 225.397 243.949 224.76 243.949C223.307 243.949 222.165 243.534 221.337 242.705C220.508 241.864 220.093 240.717 220.093 239.264C220.093 238.339 220.273 237.516 220.634 236.795C221.006 236.074 221.523 235.515 222.184 235.119C222.844 234.723 223.595 234.524 224.436 234.524C225.661 234.524 226.622 234.921 227.319 235.714C228.028 236.507 228.382 237.606 228.382 239.011V239.318ZM224.472 235.876C223.787 235.876 223.229 236.08 222.796 236.489C222.364 236.897 222.087 237.48 221.967 238.236H226.779C226.707 237.468 226.472 236.885 226.076 236.489C225.679 236.08 225.145 235.876 224.472 235.876ZM78.0707 332.685C77.6742 332.685 77.2417 332.643 76.7732 332.559V334.127C77.3138 334.223 77.8604 334.271 78.413 334.271C79.5423 334.271 80.3472 333.977 80.8277 333.388C81.3083 332.799 81.5485 331.862 81.5485 330.577V318.089H79.6744V330.559C79.6744 331.352 79.5603 331.904 79.3321 332.217C79.1038 332.529 78.6833 332.685 78.0707 332.685ZM85.9409 330.469C86.6136 330.853 87.3945 331.045 88.2835 331.045C89.1605 331.045 89.9353 330.853 90.6081 330.469C91.2808 330.084 91.7974 329.538 92.1578 328.829C92.5302 328.12 92.7164 327.291 92.7164 326.342C92.7164 325.393 92.5302 324.564 92.1578 323.855C91.7974 323.135 91.2808 322.582 90.6081 322.198C89.9353 321.813 89.1605 321.621 88.2835 321.621C87.3945 321.621 86.6136 321.813 85.9409 322.198C85.2681 322.582 84.7456 323.135 84.3732 323.855C84.0128 324.564 83.8326 325.393 83.8326 326.342C83.8326 327.291 84.0128 328.12 84.3732 328.829C84.7456 329.538 85.2681 330.084 85.9409 330.469ZM90.1936 328.775C89.7491 329.328 89.1064 329.604 88.2655 329.604C87.4366 329.604 86.7938 329.328 86.3373 328.775C85.8928 328.222 85.6706 327.411 85.6706 326.342C85.6706 325.297 85.8989 324.492 86.3554 323.928C86.8119 323.363 87.4546 323.081 88.2835 323.081C89.1004 323.081 89.7311 323.363 90.1756 323.928C90.6321 324.492 90.8604 325.297 90.8604 326.342C90.8604 327.411 90.6381 328.222 90.1936 328.775ZM94.8438 321.837V330.919H96.6458V321.837H94.8438ZM96.7899 317.873H94.6816V319.783H96.7899V317.873ZM107.405 325.261C107.405 322.834 106.317 321.621 104.143 321.621C103.446 321.621 102.821 321.777 102.269 322.09C101.728 322.39 101.314 322.828 101.025 323.405L100.863 321.837H99.1694C99.2655 322.594 99.3136 323.447 99.3136 324.396V330.919H101.116V325.748C101.116 324.943 101.344 324.3 101.8 323.819C102.269 323.339 102.888 323.099 103.656 323.099C104.329 323.099 104.816 323.279 105.116 323.639C105.428 324 105.585 324.576 105.585 325.369V330.919H107.405V325.261ZM111.257 326.414H117.744V326.108C117.744 324.702 117.39 323.603 116.681 322.81C115.984 322.017 115.023 321.621 113.798 321.621C112.957 321.621 112.206 321.819 111.545 322.216C110.884 322.612 110.368 323.171 109.995 323.892C109.635 324.612 109.455 325.435 109.455 326.36C109.455 327.814 109.869 328.961 110.698 329.802C111.527 330.631 112.668 331.045 114.122 331.045C114.759 331.045 115.389 330.943 116.014 330.739C116.651 330.523 117.173 330.235 117.582 329.874L117.023 328.577C116.158 329.261 115.203 329.604 114.158 329.604C112.284 329.604 111.317 328.541 111.257 326.414ZM112.158 323.585C112.59 323.177 113.149 322.973 113.834 322.973C114.506 322.973 115.041 323.177 115.437 323.585C115.834 323.982 116.068 324.564 116.14 325.333H111.329C111.449 324.576 111.725 323.994 112.158 323.585ZM128.14 330.919V317.657H126.32V323.279C126.055 322.75 125.659 322.342 125.13 322.054C124.614 321.765 124.013 321.621 123.328 321.621C122.523 321.621 121.815 321.813 121.202 322.198C120.601 322.582 120.133 323.129 119.796 323.837C119.46 324.546 119.292 325.369 119.292 326.306C119.292 327.243 119.46 328.072 119.796 328.793C120.145 329.502 120.625 330.054 121.238 330.451C121.851 330.847 122.547 331.045 123.328 331.045C124.025 331.045 124.632 330.901 125.148 330.613C125.677 330.325 126.073 329.91 126.338 329.37V330.919H128.14ZM125.653 328.757C125.208 329.322 124.572 329.604 123.743 329.604C122.926 329.604 122.283 329.316 121.815 328.739C121.358 328.15 121.13 327.339 121.13 326.306C121.13 325.285 121.358 324.492 121.815 323.928C122.283 323.363 122.932 323.081 123.761 323.081C124.578 323.081 125.208 323.369 125.653 323.946C126.109 324.51 126.338 325.309 126.338 326.342C126.338 327.375 126.109 328.18 125.653 328.757ZM292.212 331.064C290.975 331.064 289.894 330.799 288.969 330.271C288.056 329.73 287.353 328.967 286.86 327.982C286.368 326.997 286.122 325.832 286.122 324.486C286.122 323.153 286.368 321.993 286.86 321.008C287.353 320.023 288.056 319.266 288.969 318.738C289.894 318.209 290.975 317.945 292.212 317.945C293.089 317.945 293.9 318.083 294.645 318.359C295.402 318.624 296.039 319.014 296.555 319.531L295.906 320.9C295.306 320.408 294.711 320.053 294.122 319.837C293.546 319.609 292.915 319.495 292.23 319.495C290.897 319.495 289.864 319.927 289.131 320.792C288.41 321.657 288.05 322.888 288.05 324.486C288.05 326.096 288.41 327.339 289.131 328.216C289.864 329.081 290.897 329.514 292.23 329.514C292.915 329.514 293.546 329.406 294.122 329.189C294.711 328.961 295.306 328.601 295.906 328.108L296.555 329.478C296.039 329.994 295.402 330.391 294.645 330.667C293.9 330.931 293.089 331.064 292.212 331.064ZM303.251 321.621C303.528 321.621 303.816 321.663 304.116 321.747L304.08 323.405C303.756 323.285 303.401 323.225 303.017 323.225C302.188 323.225 301.563 323.477 301.143 323.982C300.735 324.474 300.53 325.099 300.53 325.856V330.919H298.728V324.396C298.728 323.447 298.68 322.594 298.584 321.837H300.278L300.44 323.477C300.68 322.876 301.053 322.42 301.557 322.108C302.062 321.783 302.627 321.621 303.251 321.621ZM313.076 326.414H306.589C306.649 328.541 307.616 329.604 309.49 329.604C310.535 329.604 311.49 329.261 312.355 328.577L312.914 329.874C312.505 330.235 311.983 330.523 311.346 330.739C310.721 330.943 310.091 331.045 309.454 331.045C308 331.045 306.859 330.631 306.03 329.802C305.201 328.961 304.787 327.814 304.787 326.36C304.787 325.435 304.967 324.612 305.327 323.892C305.7 323.171 306.216 322.612 306.877 322.216C307.538 321.819 308.289 321.621 309.13 321.621C310.355 321.621 311.316 322.017 312.013 322.81C312.722 323.603 313.076 324.702 313.076 326.108V326.414ZM309.166 322.973C308.481 322.973 307.922 323.177 307.49 323.585C307.057 323.994 306.781 324.576 306.661 325.333H311.472C311.4 324.564 311.166 323.982 310.769 323.585C310.373 323.177 309.838 322.973 309.166 322.973ZM323.472 330.919H321.67V329.37C321.405 329.91 321.009 330.325 320.48 330.613C319.964 330.901 319.357 331.045 318.66 331.045C317.855 331.045 317.147 330.853 316.534 330.469C315.933 330.084 315.465 329.544 315.128 328.847C314.792 328.138 314.624 327.315 314.624 326.378C314.624 325.441 314.792 324.612 315.128 323.892C315.477 323.171 315.957 322.612 316.57 322.216C317.183 321.819 317.88 321.621 318.66 321.621C319.357 321.621 319.964 321.771 320.48 322.071C320.997 322.36 321.393 322.774 321.67 323.315V321.837H323.472V330.919ZM319.093 329.604C319.91 329.604 320.54 329.322 320.985 328.757C321.441 328.18 321.67 327.375 321.67 326.342C321.67 325.297 321.441 324.492 320.985 323.928C320.54 323.363 319.904 323.081 319.075 323.081C318.258 323.081 317.615 323.375 317.147 323.964C316.69 324.54 316.462 325.345 316.462 326.378C316.462 327.399 316.69 328.192 317.147 328.757C317.615 329.322 318.264 329.604 319.093 329.604ZM328.506 323.243V327.802C328.506 328.427 328.638 328.871 328.903 329.135C329.179 329.388 329.557 329.514 330.038 329.514C330.35 329.514 330.668 329.466 330.993 329.37V330.847C330.596 330.979 330.146 331.045 329.641 331.045C328.704 331.045 327.977 330.781 327.461 330.253C326.944 329.724 326.686 328.955 326.686 327.946V323.243H324.92V321.837H326.686V319.567L328.506 318.936V321.837H331.011V323.243H328.506ZM340.44 326.414H333.953C334.013 328.541 334.98 329.604 336.854 329.604C337.9 329.604 338.855 329.261 339.72 328.577L340.278 329.874C339.87 330.235 339.347 330.523 338.71 330.739C338.086 330.943 337.455 331.045 336.818 331.045C335.365 331.045 334.223 330.631 333.395 329.802C332.566 328.961 332.151 327.814 332.151 326.36C332.151 325.435 332.331 324.612 332.692 323.892C333.064 323.171 333.581 322.612 334.241 322.216C334.902 321.819 335.653 321.621 336.494 321.621C337.719 321.621 338.68 322.017 339.377 322.81C340.086 323.603 340.44 324.702 340.44 326.108V326.414ZM336.53 322.973C335.845 322.973 335.287 323.177 334.854 323.585C334.422 323.994 334.145 324.576 334.025 325.333H338.837C338.764 324.564 338.53 323.982 338.134 323.585C337.737 323.177 337.203 322.973 336.53 322.973ZM347.495 318.089H352.829C354.175 318.089 355.22 318.419 355.965 319.08C356.721 319.729 357.1 320.618 357.1 321.747C357.1 322.876 356.715 323.771 355.947 324.432C355.19 325.081 354.151 325.405 352.829 325.405H349.351V330.919H347.495V318.089ZM352.613 323.928C353.502 323.928 354.169 323.741 354.613 323.369C355.07 322.997 355.298 322.456 355.298 321.747C355.298 321.05 355.07 320.516 354.613 320.143C354.169 319.771 353.502 319.585 352.613 319.585H349.351V323.928H352.613ZM362.805 331.045C361.916 331.045 361.135 330.853 360.462 330.469C359.79 330.084 359.267 329.538 358.895 328.829C358.534 328.12 358.354 327.291 358.354 326.342C358.354 325.393 358.534 324.564 358.895 323.855C359.267 323.135 359.79 322.582 360.462 322.198C361.135 321.813 361.916 321.621 362.805 321.621C363.682 321.621 364.457 321.813 365.13 322.198C365.802 322.582 366.319 323.135 366.679 323.855C367.052 324.564 367.238 325.393 367.238 326.342C367.238 327.291 367.052 328.12 366.679 328.829C366.319 329.538 365.802 330.084 365.13 330.469C364.457 330.853 363.682 331.045 362.805 331.045ZM362.787 329.604C363.628 329.604 364.271 329.328 364.715 328.775C365.16 328.222 365.382 327.411 365.382 326.342C365.382 325.297 365.154 324.492 364.697 323.928C364.253 323.363 363.622 323.081 362.805 323.081C361.976 323.081 361.333 323.363 360.877 323.928C360.42 324.492 360.192 325.297 360.192 326.342C360.192 327.411 360.414 328.222 360.859 328.775C361.315 329.328 361.958 329.604 362.787 329.604ZM372.537 331.045C370.951 331.045 369.702 330.661 368.789 329.892L369.329 328.577C370.278 329.298 371.366 329.658 372.591 329.658C373.216 329.658 373.69 329.556 374.014 329.352C374.339 329.135 374.501 328.835 374.501 328.451C374.501 328.126 374.387 327.874 374.159 327.694C373.942 327.502 373.57 327.339 373.041 327.207L371.528 326.847C370.735 326.679 370.128 326.384 369.708 325.964C369.299 325.531 369.095 324.997 369.095 324.36C369.095 323.543 369.419 322.882 370.068 322.378C370.729 321.873 371.6 321.621 372.681 321.621C373.33 321.621 373.942 321.723 374.519 321.927C375.108 322.132 375.606 322.42 376.015 322.792L375.456 324.072C374.579 323.375 373.654 323.027 372.681 323.027C372.092 323.027 371.636 323.141 371.311 323.369C370.987 323.585 370.825 323.892 370.825 324.288C370.825 324.6 370.927 324.853 371.131 325.045C371.335 325.237 371.66 325.387 372.104 325.495L373.654 325.874C374.519 326.066 375.156 326.372 375.564 326.793C375.985 327.201 376.195 327.736 376.195 328.397C376.195 329.213 375.865 329.862 375.204 330.343C374.555 330.811 373.666 331.045 372.537 331.045ZM380.613 323.243V327.802C380.613 328.427 380.745 328.871 381.009 329.135C381.285 329.388 381.664 329.514 382.144 329.514C382.457 329.514 382.775 329.466 383.099 329.37V330.847C382.703 330.979 382.253 331.045 381.748 331.045C380.811 331.045 380.084 330.781 379.568 330.253C379.051 329.724 378.793 328.955 378.793 327.946V323.243H377.027V321.837H378.793V319.567L380.613 318.936V321.837H383.117V323.243H380.613ZM3.21957 415.437C4.04182 415.907 5.00289 416.142 6.10277 416.142C6.88231 416.142 7.60311 416.024 8.26518 415.79C8.93792 415.544 9.50388 415.192 9.96306 414.732L9.38642 413.515C8.85249 413.953 8.32391 414.273 7.80066 414.476C7.28809 414.668 6.72747 414.764 6.11879 414.764C4.93348 414.764 4.01512 414.38 3.36373 413.611C2.72302 412.832 2.40267 411.726 2.40267 410.295C2.40267 408.875 2.72302 407.781 3.36373 407.012C4.01512 406.243 4.93348 405.859 6.11879 405.859C6.72747 405.859 7.28809 405.96 7.80066 406.163C8.32391 406.355 8.85249 406.67 9.38642 407.108L9.96306 405.891C9.50388 405.431 8.93792 405.084 8.26518 404.849C7.60311 404.604 6.88231 404.481 6.10277 404.481C5.00289 404.481 4.04182 404.716 3.21957 405.186C2.40801 405.656 1.78331 406.328 1.34549 407.204C0.907674 408.08 0.688765 409.11 0.688765 410.295C0.688765 411.491 0.907674 412.527 1.34549 413.403C1.78331 414.279 2.40801 414.957 3.21957 415.437ZM16.684 407.861C16.4171 407.786 16.1608 407.749 15.9152 407.749C15.3599 407.749 14.858 407.893 14.4095 408.181C13.961 408.459 13.63 408.865 13.4164 409.398L13.2722 407.941H11.7666C11.852 408.614 11.8947 409.372 11.8947 410.215V416.014H13.4965V411.513C13.4965 410.84 13.678 410.285 14.0411 409.847C14.4148 409.398 14.9701 409.174 15.7069 409.174C16.0486 409.174 16.3637 409.228 16.652 409.334L16.684 407.861ZM18.8818 412.009H24.6482V411.737C24.6482 410.488 24.3332 409.511 23.7032 408.806C23.0838 408.101 22.2296 407.749 21.1403 407.749C20.3928 407.749 19.7254 407.925 19.1381 408.277C18.5508 408.63 18.0916 409.126 17.7606 409.767C17.4402 410.408 17.2801 411.139 17.2801 411.961C17.2801 413.253 17.6485 414.273 18.3853 415.021C19.1221 415.757 20.1366 416.126 21.4287 416.126C21.9946 416.126 22.5552 416.035 23.1105 415.854C23.6765 415.661 24.141 415.405 24.5041 415.085L24.0075 413.931C23.2387 414.54 22.3897 414.844 21.4607 414.844C19.7948 414.844 18.9352 413.899 18.8818 412.009ZM19.6827 409.495C20.0672 409.131 20.5637 408.95 21.1724 408.95C21.7704 408.95 22.2456 409.131 22.598 409.495C22.9504 409.847 23.1586 410.365 23.2227 411.048H18.9459C19.0527 410.376 19.2983 409.858 19.6827 409.495ZM33.8889 416.014V407.941H32.2871V409.254C32.0415 408.774 31.6891 408.405 31.2299 408.149C30.7707 407.882 30.2315 407.749 29.6121 407.749C28.918 407.749 28.2987 407.925 27.7541 408.277C27.2095 408.63 26.7823 409.126 26.4726 409.767C26.1736 410.408 26.0241 411.144 26.0241 411.977C26.0241 412.81 26.1736 413.542 26.4726 414.172C26.7716 414.791 27.1881 415.272 27.722 415.613C28.2666 415.955 28.8967 416.126 29.6121 416.126C30.2315 416.126 30.7707 415.998 31.2299 415.741C31.6998 415.485 32.0522 415.117 32.2871 414.636V416.014H33.8889ZM31.6784 414.092C31.2833 414.594 30.7227 414.844 29.9965 414.844C29.2597 414.844 28.6831 414.594 28.2666 414.092C27.8608 413.59 27.658 412.885 27.658 411.977C27.658 411.059 27.8608 410.343 28.2666 409.831C28.6831 409.308 29.2544 409.046 29.9805 409.046C30.7173 409.046 31.2833 409.297 31.6784 409.799C32.0842 410.301 32.2871 411.016 32.2871 411.945C32.2871 412.864 32.0842 413.579 31.6784 414.092ZM38.3638 413.243V409.19H40.5903V407.941H38.3638V405.362L36.746 405.923V407.941H35.1763V409.19H36.746V413.371C36.746 414.268 36.9756 414.951 37.4348 415.421C37.894 415.891 38.54 416.126 39.373 416.126C39.8215 416.126 40.2219 416.067 40.5743 415.95V414.636C40.286 414.722 40.003 414.764 39.7253 414.764C39.2982 414.764 38.9618 414.652 38.7162 414.428C38.4813 414.193 38.3638 413.798 38.3638 413.243ZM43.2057 412.009H48.9721V411.737C48.9721 410.488 48.6571 409.511 48.0271 408.806C47.4077 408.101 46.5534 407.749 45.4642 407.749C44.7167 407.749 44.0493 407.925 43.462 408.277C42.8747 408.63 42.4155 409.126 42.0845 409.767C41.7641 410.408 41.6039 411.139 41.6039 411.961C41.6039 413.253 41.9723 414.273 42.7092 415.021C43.446 415.757 44.4604 416.126 45.7525 416.126C46.3185 416.126 46.8791 416.035 47.4344 415.854C48.0004 415.661 48.4649 415.405 48.828 415.085L48.3314 413.931C47.5625 414.54 46.7136 414.844 45.7846 414.844C44.1187 414.844 43.2591 413.899 43.2057 412.009ZM44.0066 409.495C44.391 409.131 44.8876 408.95 45.4962 408.95C46.0942 408.95 46.5694 409.131 46.9218 409.495C47.2742 409.847 47.4825 410.365 47.5465 411.048H43.2698C43.3766 410.376 43.6222 409.858 44.0066 409.495ZM58.2127 416.014V404.225H56.5949V409.222C56.36 408.752 56.0076 408.389 55.5378 408.133C55.0786 407.877 54.5447 407.749 53.936 407.749C53.2205 407.749 52.5905 407.919 52.0459 408.261C51.512 408.603 51.0955 409.089 50.7965 409.719C50.4975 410.349 50.348 411.08 50.348 411.913C50.348 412.746 50.4975 413.483 50.7965 414.124C51.1062 414.754 51.5333 415.245 52.0779 415.597C52.6225 415.95 53.2419 416.126 53.936 416.126C54.5553 416.126 55.0946 415.998 55.5538 415.741C56.0236 415.485 56.376 415.117 56.611 414.636V416.014H58.2127ZM56.0023 414.092C55.6072 414.594 55.0412 414.844 54.3044 414.844C53.5783 414.844 53.007 414.588 52.5905 414.076C52.1847 413.552 51.9818 412.832 51.9818 411.913C51.9818 411.006 52.1847 410.301 52.5905 409.799C53.007 409.297 53.5836 409.046 54.3204 409.046C55.0466 409.046 55.6072 409.302 56.0023 409.815C56.4081 410.317 56.611 411.027 56.611 411.945C56.611 412.864 56.4081 413.579 56.0023 414.092ZM65.0039 404.609V416.014H66.6377V410.904H71.9236V409.543H66.6377V405.971H72.2439V404.609H65.0039ZM74.9128 412.009H80.6792V411.737C80.6792 410.488 80.3642 409.511 79.7341 408.806C79.1148 408.101 78.2605 407.749 77.1713 407.749C76.4238 407.749 75.7564 407.925 75.1691 408.277C74.5817 408.63 74.1226 409.126 73.7915 409.767C73.4712 410.408 73.311 411.139 73.311 411.961C73.311 413.253 73.6794 414.273 74.4162 415.021C75.153 415.757 76.1675 416.126 77.4596 416.126C78.0256 416.126 78.5862 416.035 79.1415 415.854C79.7074 415.661 80.172 415.405 80.535 415.085L80.0385 413.931C79.2696 414.54 78.4207 414.844 77.4916 414.844C75.8258 414.844 74.9662 413.899 74.9128 412.009ZM75.7137 409.495C76.0981 409.131 76.5947 408.95 77.2033 408.95C77.8013 408.95 78.2765 409.131 78.6289 409.495C78.9813 409.847 79.1895 410.365 79.2536 411.048H74.9769C75.0836 410.376 75.3292 409.858 75.7137 409.495ZM88.6864 408.261C88.1418 407.919 87.5172 407.749 86.8124 407.749C86.193 407.749 85.6484 407.882 85.1785 408.149C84.7194 408.416 84.3723 408.79 84.1374 409.27V404.225H82.5356V416.014H84.1374V414.604C84.3723 415.095 84.7194 415.475 85.1785 415.741C85.6484 415.998 86.193 416.126 86.8124 416.126C87.5065 416.126 88.1258 415.95 88.6704 415.597C89.215 415.245 89.6368 414.754 89.9358 414.124C90.2455 413.483 90.4003 412.746 90.4003 411.913C90.4003 411.08 90.2508 410.349 89.9519 409.719C89.6529 409.089 89.2311 408.603 88.6864 408.261ZM88.1418 414.076C87.7361 414.588 87.1701 414.844 86.444 414.844C85.7071 414.844 85.1358 414.594 84.7301 414.092C84.3349 413.59 84.1374 412.874 84.1374 411.945C84.1374 411.016 84.3349 410.301 84.7301 409.799C85.1358 409.297 85.7071 409.046 86.444 409.046C87.1701 409.046 87.7361 409.297 88.1418 409.799C88.5476 410.301 88.7505 411.006 88.7505 411.913C88.7505 412.832 88.5476 413.552 88.1418 414.076ZM93.7441 414.092H91.8219V416.014H93.7441V414.092ZM103.374 404.609H95.6539V405.971H101.581L96.3267 416.014H98.1046L103.374 405.842V404.609ZM107.196 415.405V414.092H105.274V416.014H106.155C106.091 416.473 105.835 416.948 105.386 417.439L106.075 418C106.481 417.594 106.769 417.183 106.94 416.767C107.111 416.361 107.196 415.907 107.196 415.405ZM121.161 416.014V414.652H115.779L118.823 411.369C119.496 410.642 119.976 409.986 120.264 409.398C120.553 408.8 120.697 408.17 120.697 407.508C120.697 406.579 120.376 405.842 119.736 405.298C119.106 404.753 118.246 404.481 117.157 404.481C116.452 404.481 115.753 404.609 115.059 404.865C114.364 405.111 113.793 405.442 113.345 405.859L113.937 407.076C114.995 406.243 116.052 405.826 117.109 405.826C117.739 405.826 118.219 405.981 118.55 406.291C118.882 406.59 119.047 407.028 119.047 407.604C119.047 408.053 118.93 408.507 118.695 408.966C118.47 409.414 118.107 409.916 117.605 410.472L113.681 414.78V416.014H121.161ZM123.814 414.652C124.508 415.645 125.517 416.142 126.841 416.142C128.166 416.142 129.175 415.645 129.869 414.652C130.563 413.659 130.91 412.207 130.91 410.295C130.91 408.395 130.563 406.953 129.869 405.971C129.175 404.978 128.166 404.481 126.841 404.481C125.517 404.481 124.508 404.978 123.814 405.971C123.12 406.964 122.773 408.411 122.773 410.311C122.773 412.212 123.12 413.659 123.814 414.652ZM128.651 413.723C128.267 414.449 127.664 414.812 126.841 414.812C126.019 414.812 125.411 414.449 125.015 413.723C124.631 412.986 124.439 411.844 124.439 410.295C124.439 408.758 124.631 407.631 125.015 406.916C125.411 406.19 126.019 405.826 126.841 405.826C127.674 405.826 128.283 406.184 128.667 406.9C129.052 407.615 129.244 408.747 129.244 410.295C129.244 411.844 129.047 412.986 128.651 413.723ZM140.37 416.014V414.652H134.988L138.032 411.369C138.704 410.642 139.185 409.986 139.473 409.398C139.762 408.8 139.906 408.17 139.906 407.508C139.906 406.579 139.585 405.842 138.945 405.298C138.315 404.753 137.455 404.481 136.366 404.481C135.661 404.481 134.962 404.609 134.267 404.865C133.573 405.111 133.002 405.442 132.554 405.859L133.146 407.076C134.203 406.243 135.261 405.826 136.318 405.826C136.948 405.826 137.428 405.981 137.759 406.291C138.09 406.59 138.256 407.028 138.256 407.604C138.256 408.053 138.138 408.507 137.903 408.966C137.679 409.414 137.316 409.916 136.814 410.472L132.89 414.78V416.014H140.37ZM149.846 414.652H147.348V404.609H146.387L143.359 406.499V408.021L145.682 406.579V414.652H143.183V416.014H149.846V414.652Z" fill="#433E3C"/>
</svg>
